solid OpenSCAD_Model
  facet normal -0.998626 -0.0523971 0
    outer loop
      vertex -3.083 -0.324 0
      vertex -3.083 -0.324 4
      vertex -3.1 0 0
    endloop
  endfacet
  facet normal -0.998626 -0.0523971 0
    outer loop
      vertex -3.1 0 0
      vertex -3.083 -0.324 4
      vertex -3.1 0 4
    endloop
  endfacet
  facet normal 0 0 -1
    outer loop
      vertex -3.083 0.324 0
      vertex -3.032 0.645 0
      vertex -3.1 0 0
    endloop
  endfacet
  facet normal 0 0 -1
    outer loop
      vertex -3.1 0 0
      vertex -3.032 0.645 0
      vertex -2.948 0.958 0
    endloop
  endfacet
  facet normal 0 0 -1
    outer loop
      vertex -3.1 0 0
      vertex -2.948 0.958 0
      vertex -2.832 1.261 0
    endloop
  endfacet
  facet normal 0 0 -1
    outer loop
      vertex -3.1 0 0
      vertex -2.832 1.261 0
      vertex -2.685 1.55 0
    endloop
  endfacet
  facet normal 0 0 -1
    outer loop
      vertex -3.1 0 0
      vertex -2.685 1.55 0
      vertex -2.508 1.822 0
    endloop
  endfacet
  facet normal 0 0 -1
    outer loop
      vertex -3.1 0 0
      vertex -2.508 1.822 0
      vertex -2.304 2.074 0
    endloop
  endfacet
  facet normal 0 0 -1
    outer loop
      vertex -3.1 0 0
      vertex -2.304 2.074 0
      vertex -2.074 2.304 0
    endloop
  endfacet
  facet normal 0 0 -1
    outer loop
      vertex -3.1 0 0
      vertex -2.074 2.304 0
      vertex -1.822 2.508 0
    endloop
  endfacet
  facet normal 0 0 -1
    outer loop
      vertex -3.1 0 0
      vertex -1.822 2.508 0
      vertex -1.55 2.685 0
    endloop
  endfacet
  facet normal 0 0 -1
    outer loop
      vertex -3.1 0 0
      vertex -1.55 2.685 0
      vertex -1.261 2.832 0
    endloop
  endfacet
  facet normal 0 0 -1
    outer loop
      vertex -3.1 0 0
      vertex -1.261 2.832 0
      vertex -0.958 2.948 0
    endloop
  endfacet
  facet normal 0 0 -1
    outer loop
      vertex -3.1 0 0
      vertex -0.958 2.948 0
      vertex -0.645 3.032 0
    endloop
  endfacet
  facet normal 0 0 -1
    outer loop
      vertex -3.1 0 0
      vertex -0.645 3.032 0
      vertex -0.324 3.083 0
    endloop
  endfacet
  facet normal 0 0 -1
    outer loop
      vertex -3.1 0 0
      vertex -0.324 3.083 0
      vertex 0 3.1 0
    endloop
  endfacet
  facet normal 0 0 -1
    outer loop
      vertex -3.1 0 0
      vertex 0 3.1 0
      vertex 0.324 3.083 0
    endloop
  endfacet
  facet normal 0 0 -1
    outer loop
      vertex -3.1 0 0
      vertex 0.324 3.083 0
      vertex 0.645 3.032 0
    endloop
  endfacet
  facet normal 0 0 -1
    outer loop
      vertex -3.1 0 0
      vertex 0.645 3.032 0
      vertex 0.958 2.948 0
    endloop
  endfacet
  facet normal 0 0 -1
    outer loop
      vertex -3.1 0 0
      vertex 0.958 2.948 0
      vertex 1.261 2.832 0
    endloop
  endfacet
  facet normal 0 0 -1
    outer loop
      vertex -0.494 1.522 0
      vertex 1.261 2.832 0
      vertex 1.55 2.685 0
    endloop
  endfacet
  facet normal 0 0 -1
    outer loop
      vertex 0 1.6 0
      vertex 1.55 2.685 0
      vertex 1.822 2.508 0
    endloop
  endfacet
  facet normal 0 0 -1
    outer loop
      vertex 0.333 1.565 0
      vertex 1.822 2.508 0
      vertex 2.074 2.304 0
    endloop
  endfacet
  facet normal 0 0 -1
    outer loop
      vertex 0.651 1.462 0
      vertex 2.074 2.304 0
      vertex 2.304 2.074 0
    endloop
  endfacet
  facet normal 0 0 -1
    outer loop
      vertex 0.8 1.386 0
      vertex 2.304 2.074 0
      vertex 2.508 1.822 0
    endloop
  endfacet
  facet normal 0 0 -1
    outer loop
      vertex 1.071 1.189 0
      vertex 2.508 1.822 0
      vertex 2.685 1.55 0
    endloop
  endfacet
  facet normal 0 0 -1
    outer loop
      vertex 1.294 0.94 0
      vertex 2.685 1.55 0
      vertex 2.832 1.261 0
    endloop
  endfacet
  facet normal 0 0 -1
    outer loop
      vertex 1.386 0.8 0
      vertex 2.832 1.261 0
      vertex 2.948 0.958 0
    endloop
  endfacet
  facet normal 0 0 -1
    outer loop
      vertex 1.522 0.494 0
      vertex 2.948 0.958 0
      vertex 3.032 0.645 0
    endloop
  endfacet
  facet normal 0 0 -1
    outer loop
      vertex 1.565 0.333 0
      vertex 3.032 0.645 0
      vertex 3.083 0.324 0
    endloop
  endfacet
  facet normal 0 0 -1
    outer loop
      vertex -1.591 -0.167 0
      vertex -3.1 0 0
      vertex -1.6 0 0
    endloop
  endfacet
  facet normal 0 0 -1
    outer loop
      vertex 1.591 -0.167 0
      vertex 3.1 0 0
      vertex 3.083 -0.324 0
    endloop
  endfacet
  facet normal 0 0 -1
    outer loop
      vertex 1.565 -0.333 0
      vertex 3.083 -0.324 0
      vertex 3.032 -0.645 0
    endloop
  endfacet
  facet normal 0 0 -1
    outer loop
      vertex 1.462 -0.651 0
      vertex 3.032 -0.645 0
      vertex 2.948 -0.958 0
    endloop
  endfacet
  facet normal 0 0 -1
    outer loop
      vertex 1.386 -0.8 0
      vertex 2.948 -0.958 0
      vertex 2.832 -1.261 0
    endloop
  endfacet
  facet normal 0 0 -1
    outer loop
      vertex 1.189 -1.071 0
      vertex 2.832 -1.261 0
      vertex 2.685 -1.55 0
    endloop
  endfacet
  facet normal 0 0 -1
    outer loop
      vertex 0.94 -1.294 0
      vertex 2.685 -1.55 0
      vertex 2.508 -1.822 0
    endloop
  endfacet
  facet normal 0 0 -1
    outer loop
      vertex 0.75 -1.412 0
      vertex 2.508 -1.822 0
      vertex 2.304 -2.074 0
    endloop
  endfacet
  facet normal 0 0 -1
    outer loop
      vertex 0.746 -3.578 0
      vertex 1.827 -4.313 0
      vertex 1.732 -4.5 0
    endloop
  endfacet
  facet normal 0 0 -1
    outer loop
      vertex 0.713 -3.732 0
      vertex 1.732 -4.5 0
      vertex 1.618 -4.676 0
    endloop
  endfacet
  facet normal 0 0 -1
    outer loop
      vertex 0.65 -3.875 0
      vertex 1.618 -4.676 0
      vertex 1.486 -4.838 0
    endloop
  endfacet
  facet normal 0 0 -1
    outer loop
      vertex 0.557 -4.002 0
      vertex 1.486 -4.838 0
      vertex 1.338 -4.986 0
    endloop
  endfacet
  facet normal 0 0 -1
    outer loop
      vertex 0.375 -4.15 0
      vertex 1.338 -4.986 0
      vertex 1.176 -5.118 0
    endloop
  endfacet
  facet normal 0 0 -1
    outer loop
      vertex 0.232 -4.213 0
      vertex 1.176 -5.118 0
      vertex 1 -5.232 0
    endloop
  endfacet
  facet normal 0 0 -1
    outer loop
      vertex 0.078 -4.246 0
      vertex 1 -5.232 0
      vertex 0.813 -5.327 0
    endloop
  endfacet
  facet normal 0 0 -1
    outer loop
      vertex -0.156 -4.234 0
      vertex 0.813 -5.327 0
      vertex 0.618 -5.402 0
    endloop
  endfacet
  facet normal 0 0 -1
    outer loop
      vertex -0.305 -4.185 0
      vertex 0.618 -5.402 0
      vertex 0.416 -5.456 0
    endloop
  endfacet
  facet normal 0 0 -1
    outer loop
      vertex -0.557 -4.002 0
      vertex 0.416 -5.456 0
      vertex 0.209 -5.489 0
    endloop
  endfacet
  facet normal 0 0 -1
    outer loop
      vertex -3.1 0 0
      vertex 0.209 -5.489 0
      vertex 0 -5.5 0
    endloop
  endfacet
  facet normal 0 0 -1
    outer loop
      vertex -3.1 0 0
      vertex 0 -5.5 0
      vertex -0.209 -5.489 0
    endloop
  endfacet
  facet normal 0 0 -1
    outer loop
      vertex -3.1 0 0
      vertex -0.209 -5.489 0
      vertex -0.416 -5.456 0
    endloop
  endfacet
  facet normal 0 0 -1
    outer loop
      vertex -2 -2.364 0
      vertex -0.416 -5.456 0
      vertex -0.618 -5.402 0
    endloop
  endfacet
  facet normal 0 0 -1
    outer loop
      vertex 0.746 -3.578 0
      vertex 1.732 -4.5 0
      vertex 0.734 -3.656 0
    endloop
  endfacet
  facet normal 0 0 -1
    outer loop
      vertex -2 -3.5 0
      vertex -1.618 -4.676 0
      vertex -1.732 -4.5 0
    endloop
  endfacet
  facet normal 0 0 -1
    outer loop
      vertex -1.989 -3.709 0
      vertex -1.732 -4.5 0
      vertex -1.827 -4.313 0
    endloop
  endfacet
  facet normal 0 0 -1
    outer loop
      vertex -1.956 -3.916 0
      vertex -1.827 -4.313 0
      vertex -1.902 -4.118 0
    endloop
  endfacet
  facet normal 0 0 -1
    outer loop
      vertex 1.522 0.494 0
      vertex 3.032 0.645 0
      vertex 1.565 0.333 0
    endloop
  endfacet
  facet normal 0 0 -1
    outer loop
      vertex 1.386 0.8 0
      vertex 2.948 0.958 0
      vertex 1.462 0.651 0
    endloop
  endfacet
  facet normal 0 0 -1
    outer loop
      vertex -2 -2.364 0
      vertex -0.813 -5.327 0
      vertex -1 -5.232 0
    endloop
  endfacet
  facet normal 0 0 -1
    outer loop
      vertex -2 -3.5 0
      vertex -1.732 -4.5 0
      vertex -1.989 -3.709 0
    endloop
  endfacet
  facet normal 0 0 -1
    outer loop
      vertex -2 -2.364 0
      vertex -0.618 -5.402 0
      vertex -0.813 -5.327 0
    endloop
  endfacet
  facet normal 0 0 -1
    outer loop
      vertex -3.1 0 0
      vertex -0.416 -5.456 0
      vertex -2 -2.364 0
    endloop
  endfacet
  facet normal 0 0 -1
    outer loop
      vertex -2.685 -1.55 0
      vertex -3.1 0 0
      vertex -2.508 -1.822 0
    endloop
  endfacet
  facet normal 0 0 -1
    outer loop
      vertex 0.713 -3.732 0
      vertex 1.618 -4.676 0
      vertex 0.685 -3.805 0
    endloop
  endfacet
  facet normal 0 0 -1
    outer loop
      vertex -1.6 0 0
      vertex -3.1 0 0
      vertex -1.591 0.167 0
    endloop
  endfacet
  facet normal 0 0 -1
    outer loop
      vertex -3.1 0 0
      vertex -2.685 -1.55 0
      vertex -2.832 -1.261 0
    endloop
  endfacet
  facet normal 0 0 -1
    outer loop
      vertex -3.1 0 0
      vertex -2.832 -1.261 0
      vertex -2.948 -0.958 0
    endloop
  endfacet
  facet normal 0 0 -1
    outer loop
      vertex -3.1 0 0
      vertex -2.948 -0.958 0
      vertex -3.032 -0.645 0
    endloop
  endfacet
  facet normal 0 0 -1
    outer loop
      vertex -3.1 0 0
      vertex -3.032 -0.645 0
      vertex -3.083 -0.324 0
    endloop
  endfacet
  facet normal 0 0 -1
    outer loop
      vertex -1.565 -0.333 0
      vertex -3.1 0 0
      vertex -1.591 -0.167 0
    endloop
  endfacet
  facet normal 0 0 -1
    outer loop
      vertex 0.94 -1.294 0
      vertex 2.508 -1.822 0
      vertex 0.8 -1.386 0
    endloop
  endfacet
  facet normal 0 0 -1
    outer loop
      vertex -1.522 -0.494 0
      vertex -3.1 0 0
      vertex -1.565 -0.333 0
    endloop
  endfacet
  facet normal 0 0 -1
    outer loop
      vertex -1.462 -0.651 0
      vertex -3.1 0 0
      vertex -1.522 -0.494 0
    endloop
  endfacet
  facet normal 0 0 -1
    outer loop
      vertex -1.386 -0.8 0
      vertex -3.1 0 0
      vertex -1.462 -0.651 0
    endloop
  endfacet
  facet normal 0 0 -1
    outer loop
      vertex -0.75 -3.5 0
      vertex -0.8 -1.386 0
      vertex -0.75 -1.412 0
    endloop
  endfacet
  facet normal 0 0 -1
    outer loop
      vertex -3.1 0 0
      vertex -1.386 -0.8 0
      vertex -1.294 -0.94 0
    endloop
  endfacet
  facet normal 0 0 -1
    outer loop
      vertex -3.1 0 0
      vertex -1.294 -0.94 0
      vertex -1.189 -1.071 0
    endloop
  endfacet
  facet normal 0 0 -1
    outer loop
      vertex -3.1 0 0
      vertex -1.189 -1.071 0
      vertex -1.071 -1.189 0
    endloop
  endfacet
  facet normal 0 0 -1
    outer loop
      vertex -0.75 -3.5 0
      vertex -0.94 -1.294 0
      vertex -0.8 -1.386 0
    endloop
  endfacet
  facet normal 0 0 -1
    outer loop
      vertex -3.1 0 0
      vertex -1.071 -1.189 0
      vertex -0.94 -1.294 0
    endloop
  endfacet
  facet normal 0 0 -1
    outer loop
      vertex -0.75 -3.5 0
      vertex -3.1 0 0
      vertex -0.94 -1.294 0
    endloop
  endfacet
  facet normal 0 0 -1
    outer loop
      vertex 0.75 -1.412 0
      vertex 2.304 -2.074 0
      vertex 2.074 -2.304 0
    endloop
  endfacet
  facet normal 0 0 -1
    outer loop
      vertex -3.1 0 0
      vertex -0.75 -3.5 0
      vertex -0.746 -3.578 0
    endloop
  endfacet
  facet normal 0 0 -1
    outer loop
      vertex -3.1 0 0
      vertex -0.746 -3.578 0
      vertex -0.734 -3.656 0
    endloop
  endfacet
  facet normal 0 0 -1
    outer loop
      vertex -0.607 -3.941 0
      vertex 0.209 -5.489 0
      vertex -0.65 -3.875 0
    endloop
  endfacet
  facet normal 0 0 -1
    outer loop
      vertex -3.1 0 0
      vertex -0.713 -3.732 0
      vertex -0.685 -3.805 0
    endloop
  endfacet
  facet normal 0 0 -1
    outer loop
      vertex -3.1 0 0
      vertex -0.685 -3.805 0
      vertex -0.65 -3.875 0
    endloop
  endfacet
  facet normal 0 0 -1
    outer loop
      vertex -3.1 0 0
      vertex -0.65 -3.875 0
      vertex 0.209 -5.489 0
    endloop
  endfacet
  facet normal 0 0 -1
    outer loop
      vertex -0.557 -4.002 0
      vertex 0.209 -5.489 0
      vertex -0.607 -3.941 0
    endloop
  endfacet
  facet normal 0 0 -1
    outer loop
      vertex -0.502 -4.057 0
      vertex 0.416 -5.456 0
      vertex -0.557 -4.002 0
    endloop
  endfacet
  facet normal 0 0 -1
    outer loop
      vertex -0.441 -4.107 0
      vertex 0.416 -5.456 0
      vertex -0.502 -4.057 0
    endloop
  endfacet
  facet normal 0 0 -1
    outer loop
      vertex 0.75 -1.412 0
      vertex 2 -2.364 0
      vertex 2 -3.5 0
    endloop
  endfacet
  facet normal 0 0 -1
    outer loop
      vertex -0.375 -4.15 0
      vertex 0.416 -5.456 0
      vertex -0.441 -4.107 0
    endloop
  endfacet
  facet normal 0 0 -1
    outer loop
      vertex -0.305 -4.185 0
      vertex 0.416 -5.456 0
      vertex -0.375 -4.15 0
    endloop
  endfacet
  facet normal 0 0 -1
    outer loop
      vertex 0.75 -1.412 0
      vertex 2.074 -2.304 0
      vertex 2 -2.364 0
    endloop
  endfacet
  facet normal 0 0 -1
    outer loop
      vertex -0.232 -4.213 0
      vertex 0.618 -5.402 0
      vertex -0.305 -4.185 0
    endloop
  endfacet
  facet normal 0 0 -1
    outer loop
      vertex -0.713 -3.732 0
      vertex -3.1 0 0
      vertex -0.734 -3.656 0
    endloop
  endfacet
  facet normal 0 0 -1
    outer loop
      vertex -0.078 -4.246 0
      vertex 0.813 -5.327 0
      vertex -0.156 -4.234 0
    endloop
  endfacet
  facet normal 0 0 -1
    outer loop
      vertex 0 -4.25 0
      vertex 0.813 -5.327 0
      vertex -0.078 -4.246 0
    endloop
  endfacet
  facet normal 0 0 -1
    outer loop
      vertex 0.75 -1.412 0
      vertex 2 -3.5 0
      vertex 1.989 -3.709 0
    endloop
  endfacet
  facet normal 0 0 -1
    outer loop
      vertex 0.75 -1.412 0
      vertex 1.956 -3.916 0
      vertex 1.902 -4.118 0
    endloop
  endfacet
  facet normal 0 0 -1
    outer loop
      vertex 0.75 -1.412 0
      vertex 1.989 -3.709 0
      vertex 1.956 -3.916 0
    endloop
  endfacet
  facet normal 0 0 -1
    outer loop
      vertex 0.156 -4.234 0
      vertex 1 -5.232 0
      vertex 0.078 -4.246 0
    endloop
  endfacet
  facet normal 0 0 -1
    outer loop
      vertex 0.75 -1.412 0
      vertex 1.902 -4.118 0
      vertex 1.827 -4.313 0
    endloop
  endfacet
  facet normal 0 0 -1
    outer loop
      vertex 0.75 -1.412 0
      vertex 1.827 -4.313 0
      vertex 0.75 -3.5 0
    endloop
  endfacet
  facet normal 0 0 -1
    outer loop
      vertex 0.305 -4.185 0
      vertex 1.176 -5.118 0
      vertex 0.232 -4.213 0
    endloop
  endfacet
  facet normal 0 0 -1
    outer loop
      vertex 0.441 -4.107 0
      vertex 1.338 -4.986 0
      vertex 0.375 -4.15 0
    endloop
  endfacet
  facet normal 0 0 -1
    outer loop
      vertex 0.502 -4.057 0
      vertex 1.338 -4.986 0
      vertex 0.441 -4.107 0
    endloop
  endfacet
  facet normal 0 0 -1
    outer loop
      vertex 0.607 -3.941 0
      vertex 1.486 -4.838 0
      vertex 0.557 -4.002 0
    endloop
  endfacet
  facet normal 0 0 -1
    outer loop
      vertex 0.685 -3.805 0
      vertex 1.618 -4.676 0
      vertex 0.65 -3.875 0
    endloop
  endfacet
  facet normal 0 0 -1
    outer loop
      vertex 0.734 -3.656 0
      vertex 1.732 -4.5 0
      vertex 0.713 -3.732 0
    endloop
  endfacet
  facet normal 0 0 -1
    outer loop
      vertex 0.75 -3.5 0
      vertex 1.827 -4.313 0
      vertex 0.746 -3.578 0
    endloop
  endfacet
  facet normal 0 0 -1
    outer loop
      vertex 0.8 -1.386 0
      vertex 2.508 -1.822 0
      vertex 0.75 -1.412 0
    endloop
  endfacet
  facet normal 0 0 -1
    outer loop
      vertex 1.071 -1.189 0
      vertex 2.685 -1.55 0
      vertex 0.94 -1.294 0
    endloop
  endfacet
  facet normal 0 0 -1
    outer loop
      vertex 1.189 -1.071 0
      vertex 2.685 -1.55 0
      vertex 1.071 -1.189 0
    endloop
  endfacet
  facet normal 0 0 -1
    outer loop
      vertex 1.294 -0.94 0
      vertex 2.832 -1.261 0
      vertex 1.189 -1.071 0
    endloop
  endfacet
  facet normal 0 0 -1
    outer loop
      vertex 1.386 -0.8 0
      vertex 2.832 -1.261 0
      vertex 1.294 -0.94 0
    endloop
  endfacet
  facet normal 0 0 -1
    outer loop
      vertex 1.522 -0.494 0
      vertex 3.032 -0.645 0
      vertex 1.462 -0.651 0
    endloop
  endfacet
  facet normal 0 0 -1
    outer loop
      vertex 1.565 -0.333 0
      vertex 3.032 -0.645 0
      vertex 1.522 -0.494 0
    endloop
  endfacet
  facet normal 0 0 -1
    outer loop
      vertex 1.462 -0.651 0
      vertex 2.948 -0.958 0
      vertex 1.386 -0.8 0
    endloop
  endfacet
  facet normal 0 0 -1
    outer loop
      vertex 1.6 0 0
      vertex 3.1 0 0
      vertex 1.591 -0.167 0
    endloop
  endfacet
  facet normal 0 0 -1
    outer loop
      vertex 1.565 0.333 0
      vertex 3.083 0.324 0
      vertex 1.591 0.167 0
    endloop
  endfacet
  facet normal 0 0 -1
    outer loop
      vertex 3.083 0.324 0
      vertex 3.1 0 0
      vertex 1.6 0 0
    endloop
  endfacet
  facet normal 0 0 -1
    outer loop
      vertex 3.083 0.324 0
      vertex 1.6 0 0
      vertex 1.591 0.167 0
    endloop
  endfacet
  facet normal 0 0 -1
    outer loop
      vertex 1.591 -0.167 0
      vertex 3.083 -0.324 0
      vertex 1.565 -0.333 0
    endloop
  endfacet
  facet normal 0 0 -1
    outer loop
      vertex 1.462 0.651 0
      vertex 2.948 0.958 0
      vertex 1.522 0.494 0
    endloop
  endfacet
  facet normal 0 0 -1
    outer loop
      vertex 1.294 0.94 0
      vertex 2.832 1.261 0
      vertex 1.386 0.8 0
    endloop
  endfacet
  facet normal 0 0 -1
    outer loop
      vertex 1.189 1.071 0
      vertex 2.685 1.55 0
      vertex 1.294 0.94 0
    endloop
  endfacet
  facet normal 0 0 -1
    outer loop
      vertex 1.071 1.189 0
      vertex 2.685 1.55 0
      vertex 1.189 1.071 0
    endloop
  endfacet
  facet normal 0 0 -1
    outer loop
      vertex 0.94 1.294 0
      vertex 2.508 1.822 0
      vertex 1.071 1.189 0
    endloop
  endfacet
  facet normal 0 0 -1
    outer loop
      vertex 0.8 1.386 0
      vertex 2.508 1.822 0
      vertex 0.94 1.294 0
    endloop
  endfacet
  facet normal 0 0 -1
    outer loop
      vertex 0.651 1.462 0
      vertex 2.304 2.074 0
      vertex 0.8 1.386 0
    endloop
  endfacet
  facet normal 0 0 -1
    outer loop
      vertex 0.494 1.522 0
      vertex 2.074 2.304 0
      vertex 0.651 1.462 0
    endloop
  endfacet
  facet normal 0 0 -1
    outer loop
      vertex 0.333 1.565 0
      vertex 2.074 2.304 0
      vertex 0.494 1.522 0
    endloop
  endfacet
  facet normal 0 0 -1
    outer loop
      vertex 0.167 1.591 0
      vertex 1.822 2.508 0
      vertex 0.333 1.565 0
    endloop
  endfacet
  facet normal 0 0 -1
    outer loop
      vertex 0 1.6 0
      vertex 1.822 2.508 0
      vertex 0.167 1.591 0
    endloop
  endfacet
  facet normal 0 0 -1
    outer loop
      vertex -0.167 1.591 0
      vertex 1.55 2.685 0
      vertex 0 1.6 0
    endloop
  endfacet
  facet normal 0 0 -1
    outer loop
      vertex -0.494 1.522 0
      vertex 1.55 2.685 0
      vertex -0.333 1.565 0
    endloop
  endfacet
  facet normal 0 0 -1
    outer loop
      vertex -0.333 1.565 0
      vertex 1.55 2.685 0
      vertex -0.167 1.591 0
    endloop
  endfacet
  facet normal 0 0 -1
    outer loop
      vertex -0.651 1.462 0
      vertex 1.261 2.832 0
      vertex -0.494 1.522 0
    endloop
  endfacet
  facet normal 0 0 -1
    outer loop
      vertex -1.071 1.189 0
      vertex -3.1 0 0
      vertex -0.94 1.294 0
    endloop
  endfacet
  facet normal 0 0 -1
    outer loop
      vertex -0.8 1.386 0
      vertex 1.261 2.832 0
      vertex -0.651 1.462 0
    endloop
  endfacet
  facet normal 0 0 -1
    outer loop
      vertex -3.1 0 0
      vertex 1.261 2.832 0
      vertex -0.8 1.386 0
    endloop
  endfacet
  facet normal 0 0 -1
    outer loop
      vertex -3.1 0 0
      vertex -0.8 1.386 0
      vertex -0.94 1.294 0
    endloop
  endfacet
  facet normal 0 0 -1
    outer loop
      vertex -1.189 1.071 0
      vertex -3.1 0 0
      vertex -1.071 1.189 0
    endloop
  endfacet
  facet normal 0 0 -1
    outer loop
      vertex -1.294 0.94 0
      vertex -3.1 0 0
      vertex -1.189 1.071 0
    endloop
  endfacet
  facet normal 0 0 -1
    outer loop
      vertex -1.386 0.8 0
      vertex -3.1 0 0
      vertex -1.294 0.94 0
    endloop
  endfacet
  facet normal 0 0 -1
    outer loop
      vertex -1.462 0.651 0
      vertex -3.1 0 0
      vertex -1.386 0.8 0
    endloop
  endfacet
  facet normal 0 0 -1
    outer loop
      vertex -1.522 0.494 0
      vertex -3.1 0 0
      vertex -1.462 0.651 0
    endloop
  endfacet
  facet normal 0 0 -1
    outer loop
      vertex -1.565 0.333 0
      vertex -3.1 0 0
      vertex -1.522 0.494 0
    endloop
  endfacet
  facet normal 0 0 -1
    outer loop
      vertex -1.591 0.167 0
      vertex -3.1 0 0
      vertex -1.565 0.333 0
    endloop
  endfacet
  facet normal 0 0 -1
    outer loop
      vertex -1.989 -3.709 0
      vertex -1.827 -4.313 0
      vertex -1.956 -3.916 0
    endloop
  endfacet
  facet normal 0 0 -1
    outer loop
      vertex -2 -2.364 0
      vertex -1 -5.232 0
      vertex -1.176 -5.118 0
    endloop
  endfacet
  facet normal 0 0 -1
    outer loop
      vertex -2 -2.364 0
      vertex -1.176 -5.118 0
      vertex -1.338 -4.986 0
    endloop
  endfacet
  facet normal 0 0 -1
    outer loop
      vertex -2 -2.364 0
      vertex -1.338 -4.986 0
      vertex -1.486 -4.838 0
    endloop
  endfacet
  facet normal 0 0 -1
    outer loop
      vertex -2 -2.364 0
      vertex -1.486 -4.838 0
      vertex -1.618 -4.676 0
    endloop
  endfacet
  facet normal 0 0 -1
    outer loop
      vertex -2 -2.364 0
      vertex -1.618 -4.676 0
      vertex -2 -3.5 0
    endloop
  endfacet
  facet normal 0 0 -1
    outer loop
      vertex -2.508 -1.822 0
      vertex -3.1 0 0
      vertex -2.304 -2.074 0
    endloop
  endfacet
  facet normal 0 0 -1
    outer loop
      vertex -2.304 -2.074 0
      vertex -3.1 0 0
      vertex -2.074 -2.304 0
    endloop
  endfacet
  facet normal 0 0 -1
    outer loop
      vertex -2.074 -2.304 0
      vertex -3.1 0 0
      vertex -2 -2.364 0
    endloop
  endfacet
  facet normal 0 0 -1
    outer loop
      vertex 0.65 -3.875 0
      vertex 1.486 -4.838 0
      vertex 0.607 -3.941 0
    endloop
  endfacet
  facet normal 0 0 -1
    outer loop
      vertex 0.557 -4.002 0
      vertex 1.338 -4.986 0
      vertex 0.502 -4.057 0
    endloop
  endfacet
  facet normal 0 0 -1
    outer loop
      vertex 0.375 -4.15 0
      vertex 1.176 -5.118 0
      vertex 0.305 -4.185 0
    endloop
  endfacet
  facet normal 0 0 -1
    outer loop
      vertex 0.232 -4.213 0
      vertex 1 -5.232 0
      vertex 0.156 -4.234 0
    endloop
  endfacet
  facet normal 0 0 -1
    outer loop
      vertex 0.078 -4.246 0
      vertex 0.813 -5.327 0
      vertex 0 -4.25 0
    endloop
  endfacet
  facet normal 0 0 -1
    outer loop
      vertex -0.156 -4.234 0
      vertex 0.618 -5.402 0
      vertex -0.232 -4.213 0
    endloop
  endfacet
  facet normal -0.998626 0.0523971 0
    outer loop
      vertex -3.1 0 4
      vertex -3.083 0.324 4
      vertex -3.1 0 0
    endloop
  endfacet
  facet normal -0.998626 0.0523971 0
    outer loop
      vertex -3.1 0 0
      vertex -3.083 0.324 4
      vertex -3.083 0.324 0
    endloop
  endfacet
  facet normal 0 0 1
    outer loop
      vertex -3.1 0 4
      vertex -3.083 -0.324 4
      vertex -3.032 -0.645 4
    endloop
  endfacet
  facet normal 0 0 1
    outer loop
      vertex -2.832 -1.261 4
      vertex -3.1 0 4
      vertex -2.948 -0.958 4
    endloop
  endfacet
  facet normal 0 0 1
    outer loop
      vertex -2.948 -0.958 4
      vertex -3.1 0 4
      vertex -3.032 -0.645 4
    endloop
  endfacet
  facet normal 0 0 1
    outer loop
      vertex -2.685 -1.55 4
      vertex -3.1 0 4
      vertex -2.832 -1.261 4
    endloop
  endfacet
  facet normal 0 0 1
    outer loop
      vertex -2.508 -1.822 4
      vertex -3.1 0 4
      vertex -2.685 -1.55 4
    endloop
  endfacet
  facet normal 0 0 1
    outer loop
      vertex -2.304 -2.074 4
      vertex -3.1 0 4
      vertex -2.508 -1.822 4
    endloop
  endfacet
  facet normal 0 0 1
    outer loop
      vertex -2.074 -2.304 4
      vertex -3.1 0 4
      vertex -2.304 -2.074 4
    endloop
  endfacet
  facet normal 0 0 1
    outer loop
      vertex -2 -2.364 4
      vertex -3.1 0 4
      vertex -2.074 -2.304 4
    endloop
  endfacet
  facet normal 0 0 1
    outer loop
      vertex -0.416 -5.456 4
      vertex -3.1 0 4
      vertex -2 -2.364 4
    endloop
  endfacet
  facet normal 0 0 1
    outer loop
      vertex -1.989 -3.709 4
      vertex -2 -2.364 4
      vertex -2 -3.5 4
    endloop
  endfacet
  facet normal 0 0 1
    outer loop
      vertex -1.956 -3.916 4
      vertex -2 -2.364 4
      vertex -1.989 -3.709 4
    endloop
  endfacet
  facet normal 0 0 1
    outer loop
      vertex -1.902 -4.118 4
      vertex -2 -2.364 4
      vertex -1.956 -3.916 4
    endloop
  endfacet
  facet normal 0 0 1
    outer loop
      vertex -1.827 -4.313 4
      vertex -2 -2.364 4
      vertex -1.902 -4.118 4
    endloop
  endfacet
  facet normal 0 0 1
    outer loop
      vertex -1.732 -4.5 4
      vertex -2 -2.364 4
      vertex -1.827 -4.313 4
    endloop
  endfacet
  facet normal 0 0 1
    outer loop
      vertex -1.618 -4.676 4
      vertex -2 -2.364 4
      vertex -1.732 -4.5 4
    endloop
  endfacet
  facet normal 0 0 1
    outer loop
      vertex -1.486 -4.838 4
      vertex -2 -2.364 4
      vertex -1.618 -4.676 4
    endloop
  endfacet
  facet normal 0 0 1
    outer loop
      vertex -1.338 -4.986 4
      vertex -2 -2.364 4
      vertex -1.486 -4.838 4
    endloop
  endfacet
  facet normal 0 0 1
    outer loop
      vertex -1.176 -5.118 4
      vertex -2 -2.364 4
      vertex -1.338 -4.986 4
    endloop
  endfacet
  facet normal 0 0 1
    outer loop
      vertex -1 -5.232 4
      vertex -2 -2.364 4
      vertex -1.176 -5.118 4
    endloop
  endfacet
  facet normal 0 0 1
    outer loop
      vertex -0.813 -5.327 4
      vertex -2 -2.364 4
      vertex -1 -5.232 4
    endloop
  endfacet
  facet normal 0 0 1
    outer loop
      vertex -0.618 -5.402 4
      vertex -2 -2.364 4
      vertex -0.813 -5.327 4
    endloop
  endfacet
  facet normal 0 0 1
    outer loop
      vertex -0.416 -5.456 4
      vertex -2 -2.364 4
      vertex -0.618 -5.402 4
    endloop
  endfacet
  facet normal 0 0 1
    outer loop
      vertex -0.209 -5.489 4
      vertex -3.1 0 4
      vertex -0.416 -5.456 4
    endloop
  endfacet
  facet normal 0 0 1
    outer loop
      vertex 0 -5.5 4
      vertex -3.1 0 4
      vertex -0.209 -5.489 4
    endloop
  endfacet
  facet normal 0 0 1
    outer loop
      vertex 0.209 -5.489 4
      vertex -3.1 0 4
      vertex 0 -5.5 4
    endloop
  endfacet
  facet normal 0 0 1
    outer loop
      vertex -0.65 -3.875 4
      vertex -3.1 0 4
      vertex 0.209 -5.489 4
    endloop
  endfacet
  facet normal 0 0 1
    outer loop
      vertex -0.65 -3.875 4
      vertex -0.685 -3.805 4
      vertex -3.1 0 4
    endloop
  endfacet
  facet normal 0 0 1
    outer loop
      vertex -0.156 -4.234 4
      vertex -0.232 -4.213 4
      vertex 0.618 -5.402 4
    endloop
  endfacet
  facet normal 0 0 1
    outer loop
      vertex 0.078 -4.246 4
      vertex 0 -4.25 4
      vertex 0.813 -5.327 4
    endloop
  endfacet
  facet normal 0 0 1
    outer loop
      vertex 0.232 -4.213 4
      vertex 0.156 -4.234 4
      vertex 1 -5.232 4
    endloop
  endfacet
  facet normal 0 0 1
    outer loop
      vertex 0.375 -4.15 4
      vertex 0.305 -4.185 4
      vertex 1.176 -5.118 4
    endloop
  endfacet
  facet normal 0 0 1
    outer loop
      vertex 0.557 -4.002 4
      vertex 0.502 -4.057 4
      vertex 1.338 -4.986 4
    endloop
  endfacet
  facet normal 0 0 1
    outer loop
      vertex 0.65 -3.875 4
      vertex 0.607 -3.941 4
      vertex 1.486 -4.838 4
    endloop
  endfacet
  facet normal 0 0 1
    outer loop
      vertex 0.713 -3.732 4
      vertex 0.685 -3.805 4
      vertex 1.618 -4.676 4
    endloop
  endfacet
  facet normal 0 0 1
    outer loop
      vertex 0.746 -3.578 4
      vertex 0.734 -3.656 4
      vertex 1.732 -4.5 4
    endloop
  endfacet
  facet normal 0 0 1
    outer loop
      vertex -0.441 -4.107 4
      vertex -0.502 -4.057 4
      vertex 0.416 -5.456 4
    endloop
  endfacet
  facet normal 0 0 1
    outer loop
      vertex 0.94 -1.294 4
      vertex 0.8 -1.386 4
      vertex 2.508 -1.822 4
    endloop
  endfacet
  facet normal 0 0 1
    outer loop
      vertex 1.189 -1.071 4
      vertex 1.071 -1.189 4
      vertex 2.685 -1.55 4
    endloop
  endfacet
  facet normal 0 0 1
    outer loop
      vertex 1.386 -0.8 4
      vertex 1.294 -0.94 4
      vertex 2.832 -1.261 4
    endloop
  endfacet
  facet normal 0 0 1
    outer loop
      vertex 1.591 -0.167 4
      vertex 1.565 -0.333 4
      vertex 3.083 -0.324 4
    endloop
  endfacet
  facet normal 0 0 1
    outer loop
      vertex 3.1 0 4
      vertex 1.6 0 4
      vertex 3.083 -0.324 4
    endloop
  endfacet
  facet normal 0 0 1
    outer loop
      vertex 1.522 0.494 4
      vertex 1.565 0.333 4
      vertex 3.032 0.645 4
    endloop
  endfacet
  facet normal 0 0 1
    outer loop
      vertex 1.294 0.94 4
      vertex 1.386 0.8 4
      vertex 2.832 1.261 4
    endloop
  endfacet
  facet normal 0 0 1
    outer loop
      vertex -0.494 1.522 4
      vertex -0.333 1.565 4
      vertex 1.55 2.685 4
    endloop
  endfacet
  facet normal 0 0 1
    outer loop
      vertex 0.651 1.462 4
      vertex 0.8 1.386 4
      vertex 2.304 2.074 4
    endloop
  endfacet
  facet normal 0 0 1
    outer loop
      vertex -0.333 1.565 4
      vertex -0.167 1.591 4
      vertex 1.55 2.685 4
    endloop
  endfacet
  facet normal 0 0 1
    outer loop
      vertex 0.958 2.948 4
      vertex -3.1 0 4
      vertex 1.261 2.832 4
    endloop
  endfacet
  facet normal 0 0 1
    outer loop
      vertex 0.645 3.032 4
      vertex -3.1 0 4
      vertex 0.958 2.948 4
    endloop
  endfacet
  facet normal 0 0 1
    outer loop
      vertex 0.324 3.083 4
      vertex -3.1 0 4
      vertex 0.645 3.032 4
    endloop
  endfacet
  facet normal 0 0 1
    outer loop
      vertex 0 3.1 4
      vertex -3.1 0 4
      vertex 0.324 3.083 4
    endloop
  endfacet
  facet normal 0 0 1
    outer loop
      vertex -0.324 3.083 4
      vertex -3.1 0 4
      vertex 0 3.1 4
    endloop
  endfacet
  facet normal 0 0 1
    outer loop
      vertex -0.645 3.032 4
      vertex -3.1 0 4
      vertex -0.324 3.083 4
    endloop
  endfacet
  facet normal 0 0 1
    outer loop
      vertex -0.958 2.948 4
      vertex -3.1 0 4
      vertex -0.645 3.032 4
    endloop
  endfacet
  facet normal 0 0 1
    outer loop
      vertex -1.261 2.832 4
      vertex -3.1 0 4
      vertex -0.958 2.948 4
    endloop
  endfacet
  facet normal 0 0 1
    outer loop
      vertex -1.55 2.685 4
      vertex -3.1 0 4
      vertex -1.261 2.832 4
    endloop
  endfacet
  facet normal 0 0 1
    outer loop
      vertex -1.822 2.508 4
      vertex -3.1 0 4
      vertex -1.55 2.685 4
    endloop
  endfacet
  facet normal 0 0 1
    outer loop
      vertex -2.074 2.304 4
      vertex -3.1 0 4
      vertex -1.822 2.508 4
    endloop
  endfacet
  facet normal 0 0 1
    outer loop
      vertex -2.304 2.074 4
      vertex -3.1 0 4
      vertex -2.074 2.304 4
    endloop
  endfacet
  facet normal 0 0 1
    outer loop
      vertex -2.508 1.822 4
      vertex -3.1 0 4
      vertex -2.304 2.074 4
    endloop
  endfacet
  facet normal 0 0 1
    outer loop
      vertex -2.685 1.55 4
      vertex -3.1 0 4
      vertex -2.508 1.822 4
    endloop
  endfacet
  facet normal 0 0 1
    outer loop
      vertex -2.832 1.261 4
      vertex -3.1 0 4
      vertex -2.685 1.55 4
    endloop
  endfacet
  facet normal 0 0 1
    outer loop
      vertex -2.948 0.958 4
      vertex -3.1 0 4
      vertex -2.832 1.261 4
    endloop
  endfacet
  facet normal 0 0 1
    outer loop
      vertex -3.032 0.645 4
      vertex -3.1 0 4
      vertex -2.948 0.958 4
    endloop
  endfacet
  facet normal 0 0 1
    outer loop
      vertex -3.083 0.324 4
      vertex -3.1 0 4
      vertex -3.032 0.645 4
    endloop
  endfacet
  facet normal 0 0 1
    outer loop
      vertex 1.565 -0.333 4
      vertex 1.522 -0.494 4
      vertex 3.032 -0.645 4
    endloop
  endfacet
  facet normal 0 0 1
    outer loop
      vertex -1.591 0.167 4
      vertex -1.565 0.333 4
      vertex -3.1 0 4
    endloop
  endfacet
  facet normal 0 0 1
    outer loop
      vertex -1.522 0.494 4
      vertex -1.462 0.651 4
      vertex -3.1 0 4
    endloop
  endfacet
  facet normal 0 0 1
    outer loop
      vertex 1.071 1.189 4
      vertex 1.189 1.071 4
      vertex 2.685 1.55 4
    endloop
  endfacet
  facet normal 0 0 1
    outer loop
      vertex 1.386 0.8 4
      vertex 1.462 0.651 4
      vertex 2.948 0.958 4
    endloop
  endfacet
  facet normal 0 0 1
    outer loop
      vertex -1.386 0.8 4
      vertex -1.294 0.94 4
      vertex -3.1 0 4
    endloop
  endfacet
  facet normal 0 0 1
    outer loop
      vertex 0.8 1.386 4
      vertex 0.94 1.294 4
      vertex 2.508 1.822 4
    endloop
  endfacet
  facet normal 0 0 1
    outer loop
      vertex -1.189 1.071 4
      vertex -1.071 1.189 4
      vertex -3.1 0 4
    endloop
  endfacet
  facet normal 0 0 1
    outer loop
      vertex 0.333 1.565 4
      vertex 0.494 1.522 4
      vertex 2.074 2.304 4
    endloop
  endfacet
  facet normal 0 0 1
    outer loop
      vertex -1.189 1.071 4
      vertex -3.1 0 4
      vertex -1.294 0.94 4
    endloop
  endfacet
  facet normal 0 0 1
    outer loop
      vertex -0.8 1.386 4
      vertex -0.651 1.462 4
      vertex 1.261 2.832 4
    endloop
  endfacet
  facet normal 0 0 1
    outer loop
      vertex 0 1.6 4
      vertex 0.167 1.591 4
      vertex 1.822 2.508 4
    endloop
  endfacet
  facet normal 0 0 1
    outer loop
      vertex -0.94 1.294 4
      vertex -3.1 0 4
      vertex -1.071 1.189 4
    endloop
  endfacet
  facet normal 0 0 1
    outer loop
      vertex 1.261 2.832 4
      vertex -3.1 0 4
      vertex -0.94 1.294 4
    endloop
  endfacet
  facet normal 0 0 1
    outer loop
      vertex 1.261 2.832 4
      vertex -0.94 1.294 4
      vertex -0.8 1.386 4
    endloop
  endfacet
  facet normal 0 0 1
    outer loop
      vertex 1.261 2.832 4
      vertex -0.651 1.462 4
      vertex 1.55 2.685 4
    endloop
  endfacet
  facet normal 0 0 1
    outer loop
      vertex -0.651 1.462 4
      vertex -0.494 1.522 4
      vertex 1.55 2.685 4
    endloop
  endfacet
  facet normal 0 0 1
    outer loop
      vertex 1.55 2.685 4
      vertex -0.167 1.591 4
      vertex 1.822 2.508 4
    endloop
  endfacet
  facet normal 0 0 1
    outer loop
      vertex -0.167 1.591 4
      vertex 0 1.6 4
      vertex 1.822 2.508 4
    endloop
  endfacet
  facet normal 0 0 1
    outer loop
      vertex 1.822 2.508 4
      vertex 0.167 1.591 4
      vertex 2.074 2.304 4
    endloop
  endfacet
  facet normal 0 0 1
    outer loop
      vertex 0.167 1.591 4
      vertex 0.333 1.565 4
      vertex 2.074 2.304 4
    endloop
  endfacet
  facet normal 0 0 1
    outer loop
      vertex 2.074 2.304 4
      vertex 0.494 1.522 4
      vertex 2.304 2.074 4
    endloop
  endfacet
  facet normal 0 0 1
    outer loop
      vertex 0.494 1.522 4
      vertex 0.651 1.462 4
      vertex 2.304 2.074 4
    endloop
  endfacet
  facet normal 0 0 1
    outer loop
      vertex 2.304 2.074 4
      vertex 0.8 1.386 4
      vertex 2.508 1.822 4
    endloop
  endfacet
  facet normal 0 0 1
    outer loop
      vertex -1.462 0.651 4
      vertex -1.386 0.8 4
      vertex -3.1 0 4
    endloop
  endfacet
  facet normal 0 0 1
    outer loop
      vertex 2.508 1.822 4
      vertex 0.94 1.294 4
      vertex 2.685 1.55 4
    endloop
  endfacet
  facet normal 0 0 1
    outer loop
      vertex 0.94 1.294 4
      vertex 1.071 1.189 4
      vertex 2.685 1.55 4
    endloop
  endfacet
  facet normal 0 0 1
    outer loop
      vertex 2.685 1.55 4
      vertex 1.189 1.071 4
      vertex 2.832 1.261 4
    endloop
  endfacet
  facet normal 0 0 1
    outer loop
      vertex 1.189 1.071 4
      vertex 1.294 0.94 4
      vertex 2.832 1.261 4
    endloop
  endfacet
  facet normal 0 0 1
    outer loop
      vertex 2.832 1.261 4
      vertex 1.386 0.8 4
      vertex 2.948 0.958 4
    endloop
  endfacet
  facet normal 0 0 1
    outer loop
      vertex -1.565 0.333 4
      vertex -1.522 0.494 4
      vertex -3.1 0 4
    endloop
  endfacet
  facet normal 0 0 1
    outer loop
      vertex 2.948 0.958 4
      vertex 1.462 0.651 4
      vertex 3.032 0.645 4
    endloop
  endfacet
  facet normal 0 0 1
    outer loop
      vertex 1.462 0.651 4
      vertex 1.522 0.494 4
      vertex 3.032 0.645 4
    endloop
  endfacet
  facet normal 0 0 1
    outer loop
      vertex 3.032 0.645 4
      vertex 1.565 0.333 4
      vertex 3.083 0.324 4
    endloop
  endfacet
  facet normal 0 0 1
    outer loop
      vertex 1.565 0.333 4
      vertex 1.591 0.167 4
      vertex 3.083 0.324 4
    endloop
  endfacet
  facet normal 0 0 1
    outer loop
      vertex 3.083 0.324 4
      vertex 1.591 0.167 4
      vertex 3.1 0 4
    endloop
  endfacet
  facet normal 0 0 1
    outer loop
      vertex 1.591 0.167 4
      vertex 1.6 0 4
      vertex 3.1 0 4
    endloop
  endfacet
  facet normal 0 0 1
    outer loop
      vertex 1.6 0 4
      vertex 1.591 -0.167 4
      vertex 3.083 -0.324 4
    endloop
  endfacet
  facet normal 0 0 1
    outer loop
      vertex 3.083 -0.324 4
      vertex 1.565 -0.333 4
      vertex 3.032 -0.645 4
    endloop
  endfacet
  facet normal 0 0 1
    outer loop
      vertex 3.032 -0.645 4
      vertex 1.522 -0.494 4
      vertex 2.948 -0.958 4
    endloop
  endfacet
  facet normal 0 0 1
    outer loop
      vertex -1.6 0 4
      vertex -1.591 0.167 4
      vertex -3.1 0 4
    endloop
  endfacet
  facet normal 0 0 1
    outer loop
      vertex 1.522 -0.494 4
      vertex 1.462 -0.651 4
      vertex 2.948 -0.958 4
    endloop
  endfacet
  facet normal 0 0 1
    outer loop
      vertex 2.948 -0.958 4
      vertex 1.386 -0.8 4
      vertex 2.832 -1.261 4
    endloop
  endfacet
  facet normal 0 0 1
    outer loop
      vertex 2.832 -1.261 4
      vertex 1.294 -0.94 4
      vertex 2.685 -1.55 4
    endloop
  endfacet
  facet normal 0 0 1
    outer loop
      vertex 1.294 -0.94 4
      vertex 1.189 -1.071 4
      vertex 2.685 -1.55 4
    endloop
  endfacet
  facet normal 0 0 1
    outer loop
      vertex 2.685 -1.55 4
      vertex 1.071 -1.189 4
      vertex 2.508 -1.822 4
    endloop
  endfacet
  facet normal 0 0 1
    outer loop
      vertex 1.071 -1.189 4
      vertex 0.94 -1.294 4
      vertex 2.508 -1.822 4
    endloop
  endfacet
  facet normal 0 0 1
    outer loop
      vertex 2.508 -1.822 4
      vertex 0.8 -1.386 4
      vertex 2.304 -2.074 4
    endloop
  endfacet
  facet normal 0 0 1
    outer loop
      vertex -0.8 -1.386 4
      vertex -0.94 -1.294 4
      vertex -3.1 0 4
    endloop
  endfacet
  facet normal 0 0 1
    outer loop
      vertex 0.8 -1.386 4
      vertex 0.75 -1.412 4
      vertex 2.304 -2.074 4
    endloop
  endfacet
  facet normal 0 0 1
    outer loop
      vertex -1.522 -0.494 4
      vertex -1.565 -0.333 4
      vertex -3.1 0 4
    endloop
  endfacet
  facet normal 0 0 1
    outer loop
      vertex 1.827 -4.313 4
      vertex 0.75 -3.5 4
      vertex 1.732 -4.5 4
    endloop
  endfacet
  facet normal 0 0 1
    outer loop
      vertex -1.462 -0.651 4
      vertex -1.522 -0.494 4
      vertex -3.1 0 4
    endloop
  endfacet
  facet normal 0 0 1
    outer loop
      vertex 0.75 -3.5 4
      vertex 0.746 -3.578 4
      vertex 1.732 -4.5 4
    endloop
  endfacet
  facet normal 0 0 1
    outer loop
      vertex 1.732 -4.5 4
      vertex 0.734 -3.656 4
      vertex 1.618 -4.676 4
    endloop
  endfacet
  facet normal 0 0 1
    outer loop
      vertex 0.734 -3.656 4
      vertex 0.713 -3.732 4
      vertex 1.618 -4.676 4
    endloop
  endfacet
  facet normal 0 0 1
    outer loop
      vertex 1.618 -4.676 4
      vertex 0.685 -3.805 4
      vertex 1.486 -4.838 4
    endloop
  endfacet
  facet normal 0 0 1
    outer loop
      vertex 0.685 -3.805 4
      vertex 0.65 -3.875 4
      vertex 1.486 -4.838 4
    endloop
  endfacet
  facet normal 0 0 1
    outer loop
      vertex 1.486 -4.838 4
      vertex 0.607 -3.941 4
      vertex 1.338 -4.986 4
    endloop
  endfacet
  facet normal 0 0 1
    outer loop
      vertex 0.607 -3.941 4
      vertex 0.557 -4.002 4
      vertex 1.338 -4.986 4
    endloop
  endfacet
  facet normal 0 0 1
    outer loop
      vertex 1.338 -4.986 4
      vertex 0.502 -4.057 4
      vertex 1.176 -5.118 4
    endloop
  endfacet
  facet normal 0 0 1
    outer loop
      vertex 0.502 -4.057 4
      vertex 0.441 -4.107 4
      vertex 1.176 -5.118 4
    endloop
  endfacet
  facet normal 0 0 1
    outer loop
      vertex 0.441 -4.107 4
      vertex 0.375 -4.15 4
      vertex 1.176 -5.118 4
    endloop
  endfacet
  facet normal 0 0 1
    outer loop
      vertex 1.176 -5.118 4
      vertex 0.305 -4.185 4
      vertex 1 -5.232 4
    endloop
  endfacet
  facet normal 0 0 1
    outer loop
      vertex 0.305 -4.185 4
      vertex 0.232 -4.213 4
      vertex 1 -5.232 4
    endloop
  endfacet
  facet normal 0 0 1
    outer loop
      vertex 1 -5.232 4
      vertex 0.156 -4.234 4
      vertex 0.813 -5.327 4
    endloop
  endfacet
  facet normal 0 0 1
    outer loop
      vertex 0.156 -4.234 4
      vertex 0.078 -4.246 4
      vertex 0.813 -5.327 4
    endloop
  endfacet
  facet normal 0 0 1
    outer loop
      vertex 0.813 -5.327 4
      vertex 0 -4.25 4
      vertex 0.618 -5.402 4
    endloop
  endfacet
  facet normal 0 0 1
    outer loop
      vertex 0 -4.25 4
      vertex -0.078 -4.246 4
      vertex 0.618 -5.402 4
    endloop
  endfacet
  facet normal 0 0 1
    outer loop
      vertex -0.078 -4.246 4
      vertex -0.156 -4.234 4
      vertex 0.618 -5.402 4
    endloop
  endfacet
  facet normal 0 0 1
    outer loop
      vertex 0.618 -5.402 4
      vertex -0.232 -4.213 4
      vertex 0.416 -5.456 4
    endloop
  endfacet
  facet normal 0 0 1
    outer loop
      vertex -0.232 -4.213 4
      vertex -0.305 -4.185 4
      vertex 0.416 -5.456 4
    endloop
  endfacet
  facet normal 0 0 1
    outer loop
      vertex -0.305 -4.185 4
      vertex -0.375 -4.15 4
      vertex 0.416 -5.456 4
    endloop
  endfacet
  facet normal 0 0 1
    outer loop
      vertex -0.375 -4.15 4
      vertex -0.441 -4.107 4
      vertex 0.416 -5.456 4
    endloop
  endfacet
  facet normal 0 0 1
    outer loop
      vertex -0.746 -3.578 4
      vertex -0.75 -3.5 4
      vertex -3.1 0 4
    endloop
  endfacet
  facet normal 0 0 1
    outer loop
      vertex 0.416 -5.456 4
      vertex -0.502 -4.057 4
      vertex 0.209 -5.489 4
    endloop
  endfacet
  facet normal 0 0 1
    outer loop
      vertex -0.502 -4.057 4
      vertex -0.557 -4.002 4
      vertex 0.209 -5.489 4
    endloop
  endfacet
  facet normal 0 0 1
    outer loop
      vertex -0.557 -4.002 4
      vertex -0.607 -3.941 4
      vertex 0.209 -5.489 4
    endloop
  endfacet
  facet normal 0 0 1
    outer loop
      vertex -0.607 -3.941 4
      vertex -0.65 -3.875 4
      vertex 0.209 -5.489 4
    endloop
  endfacet
  facet normal 0 0 1
    outer loop
      vertex -0.685 -3.805 4
      vertex -0.713 -3.732 4
      vertex -3.1 0 4
    endloop
  endfacet
  facet normal 0 0 1
    outer loop
      vertex -0.713 -3.732 4
      vertex -0.734 -3.656 4
      vertex -3.1 0 4
    endloop
  endfacet
  facet normal 0 0 1
    outer loop
      vertex -0.734 -3.656 4
      vertex -0.746 -3.578 4
      vertex -3.1 0 4
    endloop
  endfacet
  facet normal 0 0 1
    outer loop
      vertex -1.071 -1.189 4
      vertex -3.1 0 4
      vertex -0.94 -1.294 4
    endloop
  endfacet
  facet normal 0 0 1
    outer loop
      vertex -1.189 -1.071 4
      vertex -3.1 0 4
      vertex -1.071 -1.189 4
    endloop
  endfacet
  facet normal 0 0 1
    outer loop
      vertex -1.294 -0.94 4
      vertex -3.1 0 4
      vertex -1.189 -1.071 4
    endloop
  endfacet
  facet normal 0 0 1
    outer loop
      vertex -1.386 -0.8 4
      vertex -3.1 0 4
      vertex -1.294 -0.94 4
    endloop
  endfacet
  facet normal 0 0 1
    outer loop
      vertex 1.462 -0.651 4
      vertex 1.386 -0.8 4
      vertex 2.948 -0.958 4
    endloop
  endfacet
  facet normal 0 0 1
    outer loop
      vertex -1.591 -0.167 4
      vertex -1.6 0 4
      vertex -3.1 0 4
    endloop
  endfacet
  facet normal 0 0 1
    outer loop
      vertex -1.386 -0.8 4
      vertex -1.462 -0.651 4
      vertex -3.1 0 4
    endloop
  endfacet
  facet normal 0 0 1
    outer loop
      vertex -1.565 -0.333 4
      vertex -1.591 -0.167 4
      vertex -3.1 0 4
    endloop
  endfacet
  facet normal 0 0 1
    outer loop
      vertex 0.75 -1.412 4
      vertex 2.074 -2.304 4
      vertex 2.304 -2.074 4
    endloop
  endfacet
  facet normal 0 0 1
    outer loop
      vertex 0.75 -1.412 4
      vertex 2 -2.364 4
      vertex 2.074 -2.304 4
    endloop
  endfacet
  facet normal 0 0 1
    outer loop
      vertex 0.75 -1.412 4
      vertex 2 -3.5 4
      vertex 2 -2.364 4
    endloop
  endfacet
  facet normal 0 0 1
    outer loop
      vertex 0.75 -1.412 4
      vertex 1.989 -3.709 4
      vertex 2 -3.5 4
    endloop
  endfacet
  facet normal 0 0 1
    outer loop
      vertex 0.75 -1.412 4
      vertex 1.956 -3.916 4
      vertex 1.989 -3.709 4
    endloop
  endfacet
  facet normal 0 0 1
    outer loop
      vertex 0.75 -1.412 4
      vertex 1.902 -4.118 4
      vertex 1.956 -3.916 4
    endloop
  endfacet
  facet normal 0 0 1
    outer loop
      vertex 0.75 -1.412 4
      vertex 1.827 -4.313 4
      vertex 1.902 -4.118 4
    endloop
  endfacet
  facet normal 0 0 1
    outer loop
      vertex 0.75 -1.412 4
      vertex 0.75 -3.5 4
      vertex 1.827 -4.313 4
    endloop
  endfacet
  facet normal 0 0 1
    outer loop
      vertex -0.75 -3.5 4
      vertex -0.8 -1.386 4
      vertex -3.1 0 4
    endloop
  endfacet
  facet normal 0 0 1
    outer loop
      vertex -0.75 -3.5 4
      vertex -0.75 -1.412 4
      vertex -0.8 -1.386 4
    endloop
  endfacet
  facet normal -0.987613 -0.15691 0
    outer loop
      vertex -3.032 -0.645 0
      vertex -3.032 -0.645 4
      vertex -3.083 -0.324 0
    endloop
  endfacet
  facet normal -0.987613 -0.15691 0
    outer loop
      vertex -3.083 -0.324 0
      vertex -3.032 -0.645 4
      vertex -3.083 -0.324 4
    endloop
  endfacet
  facet normal -0.965824 -0.259199 0
    outer loop
      vertex -2.948 -0.958 0
      vertex -2.948 -0.958 4
      vertex -3.032 -0.645 0
    endloop
  endfacet
  facet normal -0.965824 -0.259199 0
    outer loop
      vertex -3.032 -0.645 0
      vertex -2.948 -0.958 4
      vertex -3.032 -0.645 4
    endloop
  endfacet
  facet normal -0.933901 -0.357533 0
    outer loop
      vertex -2.832 -1.261 0
      vertex -2.832 -1.261 4
      vertex -2.948 -0.958 0
    endloop
  endfacet
  facet normal -0.933901 -0.357533 0
    outer loop
      vertex -2.948 -0.958 0
      vertex -2.832 -1.261 4
      vertex -2.948 -0.958 4
    endloop
  endfacet
  facet normal -0.891322 -0.453371 0
    outer loop
      vertex -2.685 -1.55 0
      vertex -2.685 -1.55 4
      vertex -2.832 -1.261 0
    endloop
  endfacet
  facet normal -0.891322 -0.453371 0
    outer loop
      vertex -2.832 -1.261 0
      vertex -2.685 -1.55 4
      vertex -2.832 -1.261 4
    endloop
  endfacet
  facet normal -0.838162 -0.545422 0
    outer loop
      vertex -2.508 -1.822 0
      vertex -2.508 -1.822 4
      vertex -2.685 -1.55 0
    endloop
  endfacet
  facet normal -0.838162 -0.545422 0
    outer loop
      vertex -2.685 -1.55 0
      vertex -2.508 -1.822 4
      vertex -2.685 -1.55 4
    endloop
  endfacet
  facet normal -0.777245 -0.629198 0
    outer loop
      vertex -2.304 -2.074 0
      vertex -2.304 -2.074 4
      vertex -2.508 -1.822 0
    endloop
  endfacet
  facet normal -0.777245 -0.629198 0
    outer loop
      vertex -2.508 -1.822 0
      vertex -2.304 -2.074 4
      vertex -2.508 -1.822 4
    endloop
  endfacet
  facet normal -0.707107 -0.707107 0
    outer loop
      vertex -2.304 -2.074 0
      vertex -2.074 -2.304 0
      vertex -2.074 -2.304 4
    endloop
  endfacet
  facet normal -0.707107 -0.707107 0
    outer loop
      vertex -2.304 -2.074 4
      vertex -2.304 -2.074 0
      vertex -2.074 -2.304 4
    endloop
  endfacet
  facet normal -0.629802 -0.776756 0
    outer loop
      vertex -2.074 -2.304 0
      vertex -2 -2.364 0
      vertex -2 -2.364 4
    endloop
  endfacet
  facet normal -0.629802 -0.776756 0
    outer loop
      vertex -2.074 -2.304 4
      vertex -2.074 -2.304 0
      vertex -2 -2.364 4
    endloop
  endfacet
  facet normal -1 0 0
    outer loop
      vertex -2 -3.5 4
      vertex -2 -2.364 4
      vertex -2 -3.5 0
    endloop
  endfacet
  facet normal -1 0 0
    outer loop
      vertex -2 -3.5 0
      vertex -2 -2.364 4
      vertex -2 -2.364 0
    endloop
  endfacet
  facet normal -0.998618 -0.0525588 0
    outer loop
      vertex -1.989 -3.709 0
      vertex -1.989 -3.709 4
      vertex -2 -3.5 0
    endloop
  endfacet
  facet normal -0.998618 -0.0525588 0
    outer loop
      vertex -2 -3.5 0
      vertex -1.989 -3.709 4
      vertex -2 -3.5 4
    endloop
  endfacet
  facet normal -0.98753 -0.157432 0
    outer loop
      vertex -1.956 -3.916 0
      vertex -1.956 -3.916 4
      vertex -1.989 -3.709 0
    endloop
  endfacet
  facet normal -0.98753 -0.157432 0
    outer loop
      vertex -1.989 -3.709 0
      vertex -1.956 -3.916 4
      vertex -1.989 -3.709 4
    endloop
  endfacet
  facet normal -0.966076 -0.258258 0
    outer loop
      vertex -1.902 -4.118 0
      vertex -1.902 -4.118 4
      vertex -1.956 -3.916 0
    endloop
  endfacet
  facet normal -0.966076 -0.258258 0
    outer loop
      vertex -1.956 -3.916 0
      vertex -1.902 -4.118 4
      vertex -1.956 -3.916 4
    endloop
  endfacet
  facet normal -0.933346 -0.358979 0
    outer loop
      vertex -1.827 -4.313 0
      vertex -1.827 -4.313 4
      vertex -1.902 -4.118 0
    endloop
  endfacet
  facet normal -0.933346 -0.358979 0
    outer loop
      vertex -1.902 -4.118 0
      vertex -1.827 -4.313 4
      vertex -1.902 -4.118 4
    endloop
  endfacet
  facet normal -0.891548 -0.452926 0
    outer loop
      vertex -1.732 -4.5 0
      vertex -1.732 -4.5 4
      vertex -1.827 -4.313 0
    endloop
  endfacet
  facet normal -0.891548 -0.452926 0
    outer loop
      vertex -1.827 -4.313 0
      vertex -1.732 -4.5 4
      vertex -1.827 -4.313 4
    endloop
  endfacet
  facet normal -0.839314 -0.543647 0
    outer loop
      vertex -1.618 -4.676 0
      vertex -1.618 -4.676 4
      vertex -1.732 -4.5 0
    endloop
  endfacet
  facet normal -0.839314 -0.543647 0
    outer loop
      vertex -1.732 -4.5 0
      vertex -1.618 -4.676 4
      vertex -1.732 -4.5 4
    endloop
  endfacet
  facet normal -0.775235 -0.631673 0
    outer loop
      vertex -1.486 -4.838 0
      vertex -1.486 -4.838 4
      vertex -1.618 -4.676 0
    endloop
  endfacet
  facet normal -0.775235 -0.631673 0
    outer loop
      vertex -1.618 -4.676 0
      vertex -1.486 -4.838 4
      vertex -1.618 -4.676 4
    endloop
  endfacet
  facet normal -0.707107 -0.707107 0
    outer loop
      vertex -1.486 -4.838 0
      vertex -1.338 -4.986 0
      vertex -1.338 -4.986 4
    endloop
  endfacet
  facet normal -0.707107 -0.707107 0
    outer loop
      vertex -1.486 -4.838 4
      vertex -1.486 -4.838 0
      vertex -1.338 -4.986 4
    endloop
  endfacet
  facet normal -0.631673 -0.775235 0
    outer loop
      vertex -1.338 -4.986 0
      vertex -1.176 -5.118 0
      vertex -1.176 -5.118 4
    endloop
  endfacet
  facet normal -0.631673 -0.775235 0
    outer loop
      vertex -1.338 -4.986 4
      vertex -1.338 -4.986 0
      vertex -1.176 -5.118 4
    endloop
  endfacet
  facet normal -0.543647 -0.839314 0
    outer loop
      vertex -1.176 -5.118 0
      vertex -1 -5.232 0
      vertex -1 -5.232 4
    endloop
  endfacet
  facet normal -0.543647 -0.839314 0
    outer loop
      vertex -1.176 -5.118 4
      vertex -1.176 -5.118 0
      vertex -1 -5.232 4
    endloop
  endfacet
  facet normal -0.452926 -0.891548 0
    outer loop
      vertex -1 -5.232 0
      vertex -0.813 -5.327 0
      vertex -0.813 -5.327 4
    endloop
  endfacet
  facet normal -0.452926 -0.891548 0
    outer loop
      vertex -1 -5.232 4
      vertex -1 -5.232 0
      vertex -0.813 -5.327 4
    endloop
  endfacet
  facet normal -0.358979 -0.933346 0
    outer loop
      vertex -0.813 -5.327 0
      vertex -0.618 -5.402 0
      vertex -0.618 -5.402 4
    endloop
  endfacet
  facet normal -0.358979 -0.933346 0
    outer loop
      vertex -0.813 -5.327 4
      vertex -0.813 -5.327 0
      vertex -0.618 -5.402 4
    endloop
  endfacet
  facet normal -0.258258 -0.966076 0
    outer loop
      vertex -0.618 -5.402 0
      vertex -0.416 -5.456 0
      vertex -0.416 -5.456 4
    endloop
  endfacet
  facet normal -0.258258 -0.966076 0
    outer loop
      vertex -0.618 -5.402 4
      vertex -0.618 -5.402 0
      vertex -0.416 -5.456 4
    endloop
  endfacet
  facet normal -0.157432 -0.98753 0
    outer loop
      vertex -0.416 -5.456 0
      vertex -0.209 -5.489 0
      vertex -0.209 -5.489 4
    endloop
  endfacet
  facet normal -0.157432 -0.98753 0
    outer loop
      vertex -0.416 -5.456 4
      vertex -0.416 -5.456 0
      vertex -0.209 -5.489 4
    endloop
  endfacet
  facet normal -0.0525588 -0.998618 0
    outer loop
      vertex -0.209 -5.489 0
      vertex 0 -5.5 0
      vertex 0 -5.5 4
    endloop
  endfacet
  facet normal -0.0525588 -0.998618 0
    outer loop
      vertex -0.209 -5.489 4
      vertex -0.209 -5.489 0
      vertex 0 -5.5 4
    endloop
  endfacet
  facet normal 0.0525588 -0.998618 0
    outer loop
      vertex 0 -5.5 0
      vertex 0.209 -5.489 0
      vertex 0.209 -5.489 4
    endloop
  endfacet
  facet normal 0.0525588 -0.998618 0
    outer loop
      vertex 0 -5.5 4
      vertex 0 -5.5 0
      vertex 0.209 -5.489 4
    endloop
  endfacet
  facet normal 0.157432 -0.98753 0
    outer loop
      vertex 0.209 -5.489 0
      vertex 0.416 -5.456 0
      vertex 0.416 -5.456 4
    endloop
  endfacet
  facet normal 0.157432 -0.98753 0
    outer loop
      vertex 0.209 -5.489 4
      vertex 0.209 -5.489 0
      vertex 0.416 -5.456 4
    endloop
  endfacet
  facet normal 0.258258 -0.966076 0
    outer loop
      vertex 0.416 -5.456 0
      vertex 0.618 -5.402 0
      vertex 0.618 -5.402 4
    endloop
  endfacet
  facet normal 0.258258 -0.966076 0
    outer loop
      vertex 0.416 -5.456 4
      vertex 0.416 -5.456 0
      vertex 0.618 -5.402 4
    endloop
  endfacet
  facet normal 0.358979 -0.933346 0
    outer loop
      vertex 0.618 -5.402 0
      vertex 0.813 -5.327 0
      vertex 0.813 -5.327 4
    endloop
  endfacet
  facet normal 0.358979 -0.933346 0
    outer loop
      vertex 0.618 -5.402 4
      vertex 0.618 -5.402 0
      vertex 0.813 -5.327 4
    endloop
  endfacet
  facet normal 0.452926 -0.891548 0
    outer loop
      vertex 0.813 -5.327 0
      vertex 1 -5.232 0
      vertex 1 -5.232 4
    endloop
  endfacet
  facet normal 0.452926 -0.891548 0
    outer loop
      vertex 0.813 -5.327 4
      vertex 0.813 -5.327 0
      vertex 1 -5.232 4
    endloop
  endfacet
  facet normal 0.543647 -0.839314 0
    outer loop
      vertex 1 -5.232 0
      vertex 1.176 -5.118 0
      vertex 1.176 -5.118 4
    endloop
  endfacet
  facet normal 0.543647 -0.839314 0
    outer loop
      vertex 1 -5.232 4
      vertex 1 -5.232 0
      vertex 1.176 -5.118 4
    endloop
  endfacet
  facet normal 0.631673 -0.775235 0
    outer loop
      vertex 1.176 -5.118 0
      vertex 1.338 -4.986 0
      vertex 1.338 -4.986 4
    endloop
  endfacet
  facet normal 0.631673 -0.775235 0
    outer loop
      vertex 1.176 -5.118 4
      vertex 1.176 -5.118 0
      vertex 1.338 -4.986 4
    endloop
  endfacet
  facet normal 0.707107 -0.707107 0
    outer loop
      vertex 1.338 -4.986 0
      vertex 1.486 -4.838 0
      vertex 1.486 -4.838 4
    endloop
  endfacet
  facet normal 0.707107 -0.707107 0
    outer loop
      vertex 1.338 -4.986 4
      vertex 1.338 -4.986 0
      vertex 1.486 -4.838 4
    endloop
  endfacet
  facet normal 0.775235 -0.631673 0
    outer loop
      vertex 1.486 -4.838 0
      vertex 1.618 -4.676 0
      vertex 1.618 -4.676 4
    endloop
  endfacet
  facet normal 0.775235 -0.631673 0
    outer loop
      vertex 1.486 -4.838 4
      vertex 1.486 -4.838 0
      vertex 1.618 -4.676 4
    endloop
  endfacet
  facet normal 0.839314 -0.543647 0
    outer loop
      vertex 1.618 -4.676 0
      vertex 1.732 -4.5 0
      vertex 1.732 -4.5 4
    endloop
  endfacet
  facet normal 0.839314 -0.543647 0
    outer loop
      vertex 1.618 -4.676 4
      vertex 1.618 -4.676 0
      vertex 1.732 -4.5 4
    endloop
  endfacet
  facet normal 0.891548 -0.452926 0
    outer loop
      vertex 1.732 -4.5 0
      vertex 1.827 -4.313 0
      vertex 1.827 -4.313 4
    endloop
  endfacet
  facet normal 0.891548 -0.452926 0
    outer loop
      vertex 1.732 -4.5 4
      vertex 1.732 -4.5 0
      vertex 1.827 -4.313 4
    endloop
  endfacet
  facet normal 0.933346 -0.358979 0
    outer loop
      vertex 1.827 -4.313 0
      vertex 1.902 -4.118 0
      vertex 1.902 -4.118 4
    endloop
  endfacet
  facet normal 0.933346 -0.358979 0
    outer loop
      vertex 1.827 -4.313 4
      vertex 1.827 -4.313 0
      vertex 1.902 -4.118 4
    endloop
  endfacet
  facet normal 0.966076 -0.258258 0
    outer loop
      vertex 1.902 -4.118 0
      vertex 1.956 -3.916 0
      vertex 1.956 -3.916 4
    endloop
  endfacet
  facet normal 0.966076 -0.258258 0
    outer loop
      vertex 1.902 -4.118 4
      vertex 1.902 -4.118 0
      vertex 1.956 -3.916 4
    endloop
  endfacet
  facet normal 0.98753 -0.157432 0
    outer loop
      vertex 1.956 -3.916 0
      vertex 1.989 -3.709 0
      vertex 1.989 -3.709 4
    endloop
  endfacet
  facet normal 0.98753 -0.157432 0
    outer loop
      vertex 1.956 -3.916 4
      vertex 1.956 -3.916 0
      vertex 1.989 -3.709 4
    endloop
  endfacet
  facet normal 0.998618 -0.0525588 0
    outer loop
      vertex 1.989 -3.709 0
      vertex 2 -3.5 0
      vertex 2 -3.5 4
    endloop
  endfacet
  facet normal 0.998618 -0.0525588 0
    outer loop
      vertex 1.989 -3.709 4
      vertex 1.989 -3.709 0
      vertex 2 -3.5 4
    endloop
  endfacet
  facet normal 1 0 0
    outer loop
      vertex 2 -3.5 0
      vertex 2 -2.364 0
      vertex 2 -2.364 4
    endloop
  endfacet
  facet normal 1 0 0
    outer loop
      vertex 2 -3.5 4
      vertex 2 -3.5 0
      vertex 2 -2.364 4
    endloop
  endfacet
  facet normal 0.629802 -0.776756 0
    outer loop
      vertex 2 -2.364 0
      vertex 2.074 -2.304 0
      vertex 2.074 -2.304 4
    endloop
  endfacet
  facet normal 0.629802 -0.776756 0
    outer loop
      vertex 2 -2.364 4
      vertex 2 -2.364 0
      vertex 2.074 -2.304 4
    endloop
  endfacet
  facet normal 0.707107 -0.707107 0
    outer loop
      vertex 2.074 -2.304 0
      vertex 2.304 -2.074 0
      vertex 2.304 -2.074 4
    endloop
  endfacet
  facet normal 0.707107 -0.707107 0
    outer loop
      vertex 2.074 -2.304 4
      vertex 2.074 -2.304 0
      vertex 2.304 -2.074 4
    endloop
  endfacet
  facet normal 0.777245 -0.629198 0
    outer loop
      vertex 2.304 -2.074 0
      vertex 2.508 -1.822 0
      vertex 2.508 -1.822 4
    endloop
  endfacet
  facet normal 0.777245 -0.629198 0
    outer loop
      vertex 2.304 -2.074 4
      vertex 2.304 -2.074 0
      vertex 2.508 -1.822 4
    endloop
  endfacet
  facet normal 0.838162 -0.545422 0
    outer loop
      vertex 2.508 -1.822 0
      vertex 2.685 -1.55 0
      vertex 2.685 -1.55 4
    endloop
  endfacet
  facet normal 0.838162 -0.545422 0
    outer loop
      vertex 2.508 -1.822 4
      vertex 2.508 -1.822 0
      vertex 2.685 -1.55 4
    endloop
  endfacet
  facet normal 0.891322 -0.453371 0
    outer loop
      vertex 2.685 -1.55 0
      vertex 2.832 -1.261 0
      vertex 2.832 -1.261 4
    endloop
  endfacet
  facet normal 0.891322 -0.453371 0
    outer loop
      vertex 2.685 -1.55 4
      vertex 2.685 -1.55 0
      vertex 2.832 -1.261 4
    endloop
  endfacet
  facet normal 0.933901 -0.357533 0
    outer loop
      vertex 2.832 -1.261 0
      vertex 2.948 -0.958 0
      vertex 2.948 -0.958 4
    endloop
  endfacet
  facet normal 0.933901 -0.357533 0
    outer loop
      vertex 2.832 -1.261 4
      vertex 2.832 -1.261 0
      vertex 2.948 -0.958 4
    endloop
  endfacet
  facet normal 0.965824 -0.259199 0
    outer loop
      vertex 2.948 -0.958 0
      vertex 3.032 -0.645 0
      vertex 3.032 -0.645 4
    endloop
  endfacet
  facet normal 0.965824 -0.259199 0
    outer loop
      vertex 2.948 -0.958 4
      vertex 2.948 -0.958 0
      vertex 3.032 -0.645 4
    endloop
  endfacet
  facet normal 0.987613 -0.15691 0
    outer loop
      vertex 3.032 -0.645 0
      vertex 3.083 -0.324 0
      vertex 3.083 -0.324 4
    endloop
  endfacet
  facet normal 0.987613 -0.15691 0
    outer loop
      vertex 3.032 -0.645 4
      vertex 3.032 -0.645 0
      vertex 3.083 -0.324 4
    endloop
  endfacet
  facet normal 0.998626 -0.0523971 0
    outer loop
      vertex 3.083 -0.324 0
      vertex 3.1 0 0
      vertex 3.1 0 4
    endloop
  endfacet
  facet normal 0.998626 -0.0523971 0
    outer loop
      vertex 3.083 -0.324 4
      vertex 3.083 -0.324 0
      vertex 3.1 0 4
    endloop
  endfacet
  facet normal 0.998626 0.0523971 0
    outer loop
      vertex 3.083 0.324 0
      vertex 3.083 0.324 4
      vertex 3.1 0 4
    endloop
  endfacet
  facet normal 0.998626 0.0523971 0
    outer loop
      vertex 3.1 0 0
      vertex 3.083 0.324 0
      vertex 3.1 0 4
    endloop
  endfacet
  facet normal 0.987613 0.15691 0
    outer loop
      vertex 3.032 0.645 0
      vertex 3.032 0.645 4
      vertex 3.083 0.324 4
    endloop
  endfacet
  facet normal 0.987613 0.15691 0
    outer loop
      vertex 3.083 0.324 0
      vertex 3.032 0.645 0
      vertex 3.083 0.324 4
    endloop
  endfacet
  facet normal 0.965824 0.259199 0
    outer loop
      vertex 2.948 0.958 0
      vertex 2.948 0.958 4
      vertex 3.032 0.645 4
    endloop
  endfacet
  facet normal 0.965824 0.259199 0
    outer loop
      vertex 3.032 0.645 0
      vertex 2.948 0.958 0
      vertex 3.032 0.645 4
    endloop
  endfacet
  facet normal 0.933901 0.357533 0
    outer loop
      vertex 2.832 1.261 0
      vertex 2.832 1.261 4
      vertex 2.948 0.958 4
    endloop
  endfacet
  facet normal 0.933901 0.357533 0
    outer loop
      vertex 2.948 0.958 0
      vertex 2.832 1.261 0
      vertex 2.948 0.958 4
    endloop
  endfacet
  facet normal 0.891322 0.453371 0
    outer loop
      vertex 2.685 1.55 0
      vertex 2.685 1.55 4
      vertex 2.832 1.261 4
    endloop
  endfacet
  facet normal 0.891322 0.453371 0
    outer loop
      vertex 2.832 1.261 0
      vertex 2.685 1.55 0
      vertex 2.832 1.261 4
    endloop
  endfacet
  facet normal 0.838162 0.545422 0
    outer loop
      vertex 2.508 1.822 0
      vertex 2.508 1.822 4
      vertex 2.685 1.55 4
    endloop
  endfacet
  facet normal 0.838162 0.545422 0
    outer loop
      vertex 2.685 1.55 0
      vertex 2.508 1.822 0
      vertex 2.685 1.55 4
    endloop
  endfacet
  facet normal 0.777245 0.629198 0
    outer loop
      vertex 2.304 2.074 0
      vertex 2.304 2.074 4
      vertex 2.508 1.822 4
    endloop
  endfacet
  facet normal 0.777245 0.629198 0
    outer loop
      vertex 2.508 1.822 0
      vertex 2.304 2.074 0
      vertex 2.508 1.822 4
    endloop
  endfacet
  facet normal 0.707107 0.707107 0
    outer loop
      vertex 2.074 2.304 4
      vertex 2.304 2.074 4
      vertex 2.074 2.304 0
    endloop
  endfacet
  facet normal 0.707107 0.707107 0
    outer loop
      vertex 2.074 2.304 0
      vertex 2.304 2.074 4
      vertex 2.304 2.074 0
    endloop
  endfacet
  facet normal 0.629198 0.777245 0
    outer loop
      vertex 1.822 2.508 4
      vertex 2.074 2.304 4
      vertex 1.822 2.508 0
    endloop
  endfacet
  facet normal 0.629198 0.777245 0
    outer loop
      vertex 1.822 2.508 0
      vertex 2.074 2.304 4
      vertex 2.074 2.304 0
    endloop
  endfacet
  facet normal 0.545422 0.838162 0
    outer loop
      vertex 1.55 2.685 4
      vertex 1.822 2.508 4
      vertex 1.55 2.685 0
    endloop
  endfacet
  facet normal 0.545422 0.838162 0
    outer loop
      vertex 1.55 2.685 0
      vertex 1.822 2.508 4
      vertex 1.822 2.508 0
    endloop
  endfacet
  facet normal 0.453371 0.891322 0
    outer loop
      vertex 1.261 2.832 4
      vertex 1.55 2.685 4
      vertex 1.261 2.832 0
    endloop
  endfacet
  facet normal 0.453371 0.891322 0
    outer loop
      vertex 1.261 2.832 0
      vertex 1.55 2.685 4
      vertex 1.55 2.685 0
    endloop
  endfacet
  facet normal 0.357533 0.933901 0
    outer loop
      vertex 0.958 2.948 4
      vertex 1.261 2.832 4
      vertex 0.958 2.948 0
    endloop
  endfacet
  facet normal 0.357533 0.933901 0
    outer loop
      vertex 0.958 2.948 0
      vertex 1.261 2.832 4
      vertex 1.261 2.832 0
    endloop
  endfacet
  facet normal 0.259199 0.965824 0
    outer loop
      vertex 0.645 3.032 4
      vertex 0.958 2.948 4
      vertex 0.645 3.032 0
    endloop
  endfacet
  facet normal 0.259199 0.965824 0
    outer loop
      vertex 0.645 3.032 0
      vertex 0.958 2.948 4
      vertex 0.958 2.948 0
    endloop
  endfacet
  facet normal 0.15691 0.987613 0
    outer loop
      vertex 0.324 3.083 4
      vertex 0.645 3.032 4
      vertex 0.324 3.083 0
    endloop
  endfacet
  facet normal 0.15691 0.987613 0
    outer loop
      vertex 0.324 3.083 0
      vertex 0.645 3.032 4
      vertex 0.645 3.032 0
    endloop
  endfacet
  facet normal 0.0523971 0.998626 0
    outer loop
      vertex 0 3.1 4
      vertex 0.324 3.083 4
      vertex 0 3.1 0
    endloop
  endfacet
  facet normal 0.0523971 0.998626 0
    outer loop
      vertex 0 3.1 0
      vertex 0.324 3.083 4
      vertex 0.324 3.083 0
    endloop
  endfacet
  facet normal -0.0523971 0.998626 0
    outer loop
      vertex -0.324 3.083 4
      vertex 0 3.1 4
      vertex -0.324 3.083 0
    endloop
  endfacet
  facet normal -0.0523971 0.998626 0
    outer loop
      vertex -0.324 3.083 0
      vertex 0 3.1 4
      vertex 0 3.1 0
    endloop
  endfacet
  facet normal -0.15691 0.987613 0
    outer loop
      vertex -0.645 3.032 4
      vertex -0.324 3.083 4
      vertex -0.645 3.032 0
    endloop
  endfacet
  facet normal -0.15691 0.987613 0
    outer loop
      vertex -0.645 3.032 0
      vertex -0.324 3.083 4
      vertex -0.324 3.083 0
    endloop
  endfacet
  facet normal -0.259199 0.965824 0
    outer loop
      vertex -0.958 2.948 4
      vertex -0.645 3.032 4
      vertex -0.958 2.948 0
    endloop
  endfacet
  facet normal -0.259199 0.965824 0
    outer loop
      vertex -0.958 2.948 0
      vertex -0.645 3.032 4
      vertex -0.645 3.032 0
    endloop
  endfacet
  facet normal -0.357533 0.933901 0
    outer loop
      vertex -1.261 2.832 4
      vertex -0.958 2.948 4
      vertex -1.261 2.832 0
    endloop
  endfacet
  facet normal -0.357533 0.933901 0
    outer loop
      vertex -1.261 2.832 0
      vertex -0.958 2.948 4
      vertex -0.958 2.948 0
    endloop
  endfacet
  facet normal -0.453371 0.891322 0
    outer loop
      vertex -1.55 2.685 4
      vertex -1.261 2.832 4
      vertex -1.55 2.685 0
    endloop
  endfacet
  facet normal -0.453371 0.891322 0
    outer loop
      vertex -1.55 2.685 0
      vertex -1.261 2.832 4
      vertex -1.261 2.832 0
    endloop
  endfacet
  facet normal -0.545422 0.838162 0
    outer loop
      vertex -1.822 2.508 4
      vertex -1.55 2.685 4
      vertex -1.822 2.508 0
    endloop
  endfacet
  facet normal -0.545422 0.838162 0
    outer loop
      vertex -1.822 2.508 0
      vertex -1.55 2.685 4
      vertex -1.55 2.685 0
    endloop
  endfacet
  facet normal -0.629198 0.777245 0
    outer loop
      vertex -2.074 2.304 4
      vertex -1.822 2.508 4
      vertex -2.074 2.304 0
    endloop
  endfacet
  facet normal -0.629198 0.777245 0
    outer loop
      vertex -2.074 2.304 0
      vertex -1.822 2.508 4
      vertex -1.822 2.508 0
    endloop
  endfacet
  facet normal -0.707107 0.707107 0
    outer loop
      vertex -2.304 2.074 4
      vertex -2.074 2.304 4
      vertex -2.304 2.074 0
    endloop
  endfacet
  facet normal -0.707107 0.707107 0
    outer loop
      vertex -2.304 2.074 0
      vertex -2.074 2.304 4
      vertex -2.074 2.304 0
    endloop
  endfacet
  facet normal -0.777245 0.629198 0
    outer loop
      vertex -2.508 1.822 4
      vertex -2.304 2.074 4
      vertex -2.508 1.822 0
    endloop
  endfacet
  facet normal -0.777245 0.629198 0
    outer loop
      vertex -2.508 1.822 0
      vertex -2.304 2.074 4
      vertex -2.304 2.074 0
    endloop
  endfacet
  facet normal -0.838162 0.545422 0
    outer loop
      vertex -2.685 1.55 4
      vertex -2.508 1.822 4
      vertex -2.685 1.55 0
    endloop
  endfacet
  facet normal -0.838162 0.545422 0
    outer loop
      vertex -2.685 1.55 0
      vertex -2.508 1.822 4
      vertex -2.508 1.822 0
    endloop
  endfacet
  facet normal -0.891322 0.453371 0
    outer loop
      vertex -2.832 1.261 4
      vertex -2.685 1.55 4
      vertex -2.832 1.261 0
    endloop
  endfacet
  facet normal -0.891322 0.453371 0
    outer loop
      vertex -2.832 1.261 0
      vertex -2.685 1.55 4
      vertex -2.685 1.55 0
    endloop
  endfacet
  facet normal -0.933901 0.357533 0
    outer loop
      vertex -2.948 0.958 4
      vertex -2.832 1.261 4
      vertex -2.948 0.958 0
    endloop
  endfacet
  facet normal -0.933901 0.357533 0
    outer loop
      vertex -2.948 0.958 0
      vertex -2.832 1.261 4
      vertex -2.832 1.261 0
    endloop
  endfacet
  facet normal -0.965824 0.259199 0
    outer loop
      vertex -3.032 0.645 4
      vertex -2.948 0.958 4
      vertex -3.032 0.645 0
    endloop
  endfacet
  facet normal -0.965824 0.259199 0
    outer loop
      vertex -3.032 0.645 0
      vertex -2.948 0.958 4
      vertex -2.948 0.958 0
    endloop
  endfacet
  facet normal -0.987613 0.15691 0
    outer loop
      vertex -3.083 0.324 4
      vertex -3.032 0.645 4
      vertex -3.083 0.324 0
    endloop
  endfacet
  facet normal -0.987613 0.15691 0
    outer loop
      vertex -3.083 0.324 0
      vertex -3.032 0.645 4
      vertex -3.032 0.645 0
    endloop
  endfacet
  facet normal 0.998551 0.0538141 0
    outer loop
      vertex -1.6 0 0
      vertex -1.6 0 4
      vertex -1.591 -0.167 4
    endloop
  endfacet
  facet normal 0.998551 0.0538141 0
    outer loop
      vertex -1.591 -0.167 0
      vertex -1.6 0 0
      vertex -1.591 -0.167 4
    endloop
  endfacet
  facet normal 0.998551 -0.0538141 0
    outer loop
      vertex -1.6 0 0
      vertex -1.591 0.167 0
      vertex -1.591 0.167 4
    endloop
  endfacet
  facet normal 0.998551 -0.0538141 0
    outer loop
      vertex -1.6 0 4
      vertex -1.6 0 0
      vertex -1.591 0.167 4
    endloop
  endfacet
  facet normal 0.987955 -0.15474 0
    outer loop
      vertex -1.591 0.167 0
      vertex -1.565 0.333 0
      vertex -1.565 0.333 4
    endloop
  endfacet
  facet normal 0.987955 -0.15474 0
    outer loop
      vertex -1.591 0.167 4
      vertex -1.591 0.167 0
      vertex -1.565 0.333 4
    endloop
  endfacet
  facet normal 0.966135 -0.258036 0
    outer loop
      vertex -1.565 0.333 0
      vertex -1.522 0.494 0
      vertex -1.522 0.494 4
    endloop
  endfacet
  facet normal 0.966135 -0.258036 0
    outer loop
      vertex -1.565 0.333 4
      vertex -1.565 0.333 0
      vertex -1.522 0.494 4
    endloop
  endfacet
  facet normal 0.93411 -0.356985 0
    outer loop
      vertex -1.522 0.494 0
      vertex -1.462 0.651 0
      vertex -1.462 0.651 4
    endloop
  endfacet
  facet normal 0.93411 -0.356985 0
    outer loop
      vertex -1.522 0.494 4
      vertex -1.522 0.494 0
      vertex -1.462 0.651 4
    endloop
  endfacet
  facet normal 0.890811 -0.454374 0
    outer loop
      vertex -1.462 0.651 0
      vertex -1.386 0.8 0
      vertex -1.386 0.8 4
    endloop
  endfacet
  facet normal 0.890811 -0.454374 0
    outer loop
      vertex -1.462 0.651 4
      vertex -1.462 0.651 0
      vertex -1.386 0.8 4
    endloop
  endfacet
  facet normal 0.835705 -0.549178 0
    outer loop
      vertex -1.386 0.8 0
      vertex -1.294 0.94 0
      vertex -1.294 0.94 4
    endloop
  endfacet
  facet normal 0.835705 -0.549178 0
    outer loop
      vertex -1.386 0.8 4
      vertex -1.386 0.8 0
      vertex -1.294 0.94 4
    endloop
  endfacet
  facet normal 0.780287 -0.625421 0
    outer loop
      vertex -1.294 0.94 0
      vertex -1.189 1.071 0
      vertex -1.189 1.071 4
    endloop
  endfacet
  facet normal 0.780287 -0.625421 0
    outer loop
      vertex -1.294 0.94 4
      vertex -1.294 0.94 0
      vertex -1.189 1.071 4
    endloop
  endfacet
  facet normal 0.707107 -0.707107 0
    outer loop
      vertex -1.189 1.071 0
      vertex -1.071 1.189 0
      vertex -1.071 1.189 4
    endloop
  endfacet
  facet normal 0.707107 -0.707107 0
    outer loop
      vertex -1.189 1.071 4
      vertex -1.189 1.071 0
      vertex -1.071 1.189 4
    endloop
  endfacet
  facet normal 0.625421 -0.780287 0
    outer loop
      vertex -1.071 1.189 0
      vertex -0.94 1.294 0
      vertex -0.94 1.294 4
    endloop
  endfacet
  facet normal 0.625421 -0.780287 0
    outer loop
      vertex -1.071 1.189 4
      vertex -1.071 1.189 0
      vertex -0.94 1.294 4
    endloop
  endfacet
  facet normal 0.549178 -0.835705 0
    outer loop
      vertex -0.94 1.294 0
      vertex -0.8 1.386 0
      vertex -0.8 1.386 4
    endloop
  endfacet
  facet normal 0.549178 -0.835705 0
    outer loop
      vertex -0.94 1.294 4
      vertex -0.94 1.294 0
      vertex -0.8 1.386 4
    endloop
  endfacet
  facet normal 0.454374 -0.890811 0
    outer loop
      vertex -0.8 1.386 0
      vertex -0.651 1.462 0
      vertex -0.651 1.462 4
    endloop
  endfacet
  facet normal 0.454374 -0.890811 0
    outer loop
      vertex -0.8 1.386 4
      vertex -0.8 1.386 0
      vertex -0.651 1.462 4
    endloop
  endfacet
  facet normal 0.356985 -0.93411 0
    outer loop
      vertex -0.651 1.462 0
      vertex -0.494 1.522 0
      vertex -0.494 1.522 4
    endloop
  endfacet
  facet normal 0.356985 -0.93411 0
    outer loop
      vertex -0.651 1.462 4
      vertex -0.651 1.462 0
      vertex -0.494 1.522 4
    endloop
  endfacet
  facet normal 0.258036 -0.966135 0
    outer loop
      vertex -0.494 1.522 0
      vertex -0.333 1.565 0
      vertex -0.333 1.565 4
    endloop
  endfacet
  facet normal 0.258036 -0.966135 0
    outer loop
      vertex -0.494 1.522 4
      vertex -0.494 1.522 0
      vertex -0.333 1.565 4
    endloop
  endfacet
  facet normal 0.15474 -0.987955 0
    outer loop
      vertex -0.333 1.565 0
      vertex -0.167 1.591 0
      vertex -0.167 1.591 4
    endloop
  endfacet
  facet normal 0.15474 -0.987955 0
    outer loop
      vertex -0.333 1.565 4
      vertex -0.333 1.565 0
      vertex -0.167 1.591 4
    endloop
  endfacet
  facet normal 0.0538141 -0.998551 0
    outer loop
      vertex -0.167 1.591 0
      vertex 0 1.6 0
      vertex 0 1.6 4
    endloop
  endfacet
  facet normal 0.0538141 -0.998551 0
    outer loop
      vertex -0.167 1.591 4
      vertex -0.167 1.591 0
      vertex 0 1.6 4
    endloop
  endfacet
  facet normal -0.0538141 -0.998551 0
    outer loop
      vertex 0 1.6 0
      vertex 0.167 1.591 0
      vertex 0.167 1.591 4
    endloop
  endfacet
  facet normal -0.0538141 -0.998551 0
    outer loop
      vertex 0 1.6 4
      vertex 0 1.6 0
      vertex 0.167 1.591 4
    endloop
  endfacet
  facet normal -0.15474 -0.987955 0
    outer loop
      vertex 0.167 1.591 0
      vertex 0.333 1.565 0
      vertex 0.333 1.565 4
    endloop
  endfacet
  facet normal -0.15474 -0.987955 0
    outer loop
      vertex 0.167 1.591 4
      vertex 0.167 1.591 0
      vertex 0.333 1.565 4
    endloop
  endfacet
  facet normal -0.258036 -0.966135 0
    outer loop
      vertex 0.333 1.565 0
      vertex 0.494 1.522 0
      vertex 0.494 1.522 4
    endloop
  endfacet
  facet normal -0.258036 -0.966135 0
    outer loop
      vertex 0.333 1.565 4
      vertex 0.333 1.565 0
      vertex 0.494 1.522 4
    endloop
  endfacet
  facet normal -0.356985 -0.93411 0
    outer loop
      vertex 0.494 1.522 0
      vertex 0.651 1.462 0
      vertex 0.651 1.462 4
    endloop
  endfacet
  facet normal -0.356985 -0.93411 0
    outer loop
      vertex 0.494 1.522 4
      vertex 0.494 1.522 0
      vertex 0.651 1.462 4
    endloop
  endfacet
  facet normal -0.454374 -0.890811 0
    outer loop
      vertex 0.651 1.462 0
      vertex 0.8 1.386 0
      vertex 0.8 1.386 4
    endloop
  endfacet
  facet normal -0.454374 -0.890811 0
    outer loop
      vertex 0.651 1.462 4
      vertex 0.651 1.462 0
      vertex 0.8 1.386 4
    endloop
  endfacet
  facet normal -0.549178 -0.835705 0
    outer loop
      vertex 0.8 1.386 0
      vertex 0.94 1.294 0
      vertex 0.94 1.294 4
    endloop
  endfacet
  facet normal -0.549178 -0.835705 0
    outer loop
      vertex 0.8 1.386 4
      vertex 0.8 1.386 0
      vertex 0.94 1.294 4
    endloop
  endfacet
  facet normal -0.625421 -0.780287 0
    outer loop
      vertex 0.94 1.294 0
      vertex 1.071 1.189 0
      vertex 1.071 1.189 4
    endloop
  endfacet
  facet normal -0.625421 -0.780287 0
    outer loop
      vertex 0.94 1.294 4
      vertex 0.94 1.294 0
      vertex 1.071 1.189 4
    endloop
  endfacet
  facet normal -0.707107 -0.707107 0
    outer loop
      vertex 1.071 1.189 0
      vertex 1.189 1.071 0
      vertex 1.189 1.071 4
    endloop
  endfacet
  facet normal -0.707107 -0.707107 0
    outer loop
      vertex 1.071 1.189 4
      vertex 1.071 1.189 0
      vertex 1.189 1.071 4
    endloop
  endfacet
  facet normal -0.780287 -0.625421 0
    outer loop
      vertex 1.294 0.94 0
      vertex 1.294 0.94 4
      vertex 1.189 1.071 0
    endloop
  endfacet
  facet normal -0.780287 -0.625421 0
    outer loop
      vertex 1.189 1.071 0
      vertex 1.294 0.94 4
      vertex 1.189 1.071 4
    endloop
  endfacet
  facet normal -0.835705 -0.549178 0
    outer loop
      vertex 1.386 0.8 0
      vertex 1.386 0.8 4
      vertex 1.294 0.94 0
    endloop
  endfacet
  facet normal -0.835705 -0.549178 0
    outer loop
      vertex 1.294 0.94 0
      vertex 1.386 0.8 4
      vertex 1.294 0.94 4
    endloop
  endfacet
  facet normal -0.890811 -0.454374 0
    outer loop
      vertex 1.462 0.651 0
      vertex 1.462 0.651 4
      vertex 1.386 0.8 0
    endloop
  endfacet
  facet normal -0.890811 -0.454374 0
    outer loop
      vertex 1.386 0.8 0
      vertex 1.462 0.651 4
      vertex 1.386 0.8 4
    endloop
  endfacet
  facet normal -0.93411 -0.356985 0
    outer loop
      vertex 1.522 0.494 0
      vertex 1.522 0.494 4
      vertex 1.462 0.651 0
    endloop
  endfacet
  facet normal -0.93411 -0.356985 0
    outer loop
      vertex 1.462 0.651 0
      vertex 1.522 0.494 4
      vertex 1.462 0.651 4
    endloop
  endfacet
  facet normal -0.966135 -0.258036 0
    outer loop
      vertex 1.565 0.333 0
      vertex 1.565 0.333 4
      vertex 1.522 0.494 0
    endloop
  endfacet
  facet normal -0.966135 -0.258036 0
    outer loop
      vertex 1.522 0.494 0
      vertex 1.565 0.333 4
      vertex 1.522 0.494 4
    endloop
  endfacet
  facet normal -0.987955 -0.15474 0
    outer loop
      vertex 1.591 0.167 0
      vertex 1.591 0.167 4
      vertex 1.565 0.333 0
    endloop
  endfacet
  facet normal -0.987955 -0.15474 0
    outer loop
      vertex 1.565 0.333 0
      vertex 1.591 0.167 4
      vertex 1.565 0.333 4
    endloop
  endfacet
  facet normal -0.998551 -0.0538141 0
    outer loop
      vertex 1.6 0 0
      vertex 1.6 0 4
      vertex 1.591 0.167 0
    endloop
  endfacet
  facet normal -0.998551 -0.0538141 0
    outer loop
      vertex 1.591 0.167 0
      vertex 1.6 0 4
      vertex 1.591 0.167 4
    endloop
  endfacet
  facet normal -0.998551 0.0538141 0
    outer loop
      vertex 1.591 -0.167 4
      vertex 1.6 0 4
      vertex 1.591 -0.167 0
    endloop
  endfacet
  facet normal -0.998551 0.0538141 0
    outer loop
      vertex 1.591 -0.167 0
      vertex 1.6 0 4
      vertex 1.6 0 0
    endloop
  endfacet
  facet normal -0.987955 0.15474 0
    outer loop
      vertex 1.565 -0.333 4
      vertex 1.591 -0.167 4
      vertex 1.565 -0.333 0
    endloop
  endfacet
  facet normal -0.987955 0.15474 0
    outer loop
      vertex 1.565 -0.333 0
      vertex 1.591 -0.167 4
      vertex 1.591 -0.167 0
    endloop
  endfacet
  facet normal -0.966135 0.258036 0
    outer loop
      vertex 1.522 -0.494 4
      vertex 1.565 -0.333 4
      vertex 1.522 -0.494 0
    endloop
  endfacet
  facet normal -0.966135 0.258036 0
    outer loop
      vertex 1.522 -0.494 0
      vertex 1.565 -0.333 4
      vertex 1.565 -0.333 0
    endloop
  endfacet
  facet normal -0.93411 0.356985 0
    outer loop
      vertex 1.462 -0.651 4
      vertex 1.522 -0.494 4
      vertex 1.462 -0.651 0
    endloop
  endfacet
  facet normal -0.93411 0.356985 0
    outer loop
      vertex 1.462 -0.651 0
      vertex 1.522 -0.494 4
      vertex 1.522 -0.494 0
    endloop
  endfacet
  facet normal -0.890811 0.454374 0
    outer loop
      vertex 1.386 -0.8 4
      vertex 1.462 -0.651 4
      vertex 1.386 -0.8 0
    endloop
  endfacet
  facet normal -0.890811 0.454374 0
    outer loop
      vertex 1.386 -0.8 0
      vertex 1.462 -0.651 4
      vertex 1.462 -0.651 0
    endloop
  endfacet
  facet normal -0.835705 0.549178 0
    outer loop
      vertex 1.294 -0.94 4
      vertex 1.386 -0.8 4
      vertex 1.294 -0.94 0
    endloop
  endfacet
  facet normal -0.835705 0.549178 0
    outer loop
      vertex 1.294 -0.94 0
      vertex 1.386 -0.8 4
      vertex 1.386 -0.8 0
    endloop
  endfacet
  facet normal -0.780287 0.625421 0
    outer loop
      vertex 1.189 -1.071 4
      vertex 1.294 -0.94 4
      vertex 1.189 -1.071 0
    endloop
  endfacet
  facet normal -0.780287 0.625421 0
    outer loop
      vertex 1.189 -1.071 0
      vertex 1.294 -0.94 4
      vertex 1.294 -0.94 0
    endloop
  endfacet
  facet normal -0.707107 0.707107 0
    outer loop
      vertex 1.071 -1.189 4
      vertex 1.189 -1.071 4
      vertex 1.071 -1.189 0
    endloop
  endfacet
  facet normal -0.707107 0.707107 0
    outer loop
      vertex 1.071 -1.189 0
      vertex 1.189 -1.071 4
      vertex 1.189 -1.071 0
    endloop
  endfacet
  facet normal -0.625421 0.780287 0
    outer loop
      vertex 0.94 -1.294 4
      vertex 1.071 -1.189 4
      vertex 0.94 -1.294 0
    endloop
  endfacet
  facet normal -0.625421 0.780287 0
    outer loop
      vertex 0.94 -1.294 0
      vertex 1.071 -1.189 4
      vertex 1.071 -1.189 0
    endloop
  endfacet
  facet normal -0.549178 0.835705 0
    outer loop
      vertex 0.8 -1.386 4
      vertex 0.94 -1.294 4
      vertex 0.8 -1.386 0
    endloop
  endfacet
  facet normal -0.549178 0.835705 0
    outer loop
      vertex 0.8 -1.386 0
      vertex 0.94 -1.294 4
      vertex 0.94 -1.294 0
    endloop
  endfacet
  facet normal -0.461353 0.887217 0
    outer loop
      vertex 0.75 -1.412 4
      vertex 0.8 -1.386 4
      vertex 0.75 -1.412 0
    endloop
  endfacet
  facet normal -0.461353 0.887217 0
    outer loop
      vertex 0.75 -1.412 0
      vertex 0.8 -1.386 4
      vertex 0.8 -1.386 0
    endloop
  endfacet
  facet normal -1 0 0
    outer loop
      vertex 0.75 -3.5 4
      vertex 0.75 -1.412 4
      vertex 0.75 -3.5 0
    endloop
  endfacet
  facet normal -1 0 0
    outer loop
      vertex 0.75 -3.5 0
      vertex 0.75 -1.412 4
      vertex 0.75 -1.412 0
    endloop
  endfacet
  facet normal -0.998688 0.0512148 0
    outer loop
      vertex 0.746 -3.578 4
      vertex 0.75 -3.5 4
      vertex 0.746 -3.578 0
    endloop
  endfacet
  facet normal -0.998688 0.0512148 0
    outer loop
      vertex 0.746 -3.578 0
      vertex 0.75 -3.5 4
      vertex 0.75 -3.5 0
    endloop
  endfacet
  facet normal -0.988372 0.152057 0
    outer loop
      vertex 0.734 -3.656 4
      vertex 0.746 -3.578 4
      vertex 0.734 -3.656 0
    endloop
  endfacet
  facet normal -0.988372 0.152057 0
    outer loop
      vertex 0.734 -3.656 0
      vertex 0.746 -3.578 4
      vertex 0.746 -3.578 0
    endloop
  endfacet
  facet normal -0.96388 0.266335 0
    outer loop
      vertex 0.713 -3.732 4
      vertex 0.734 -3.656 4
      vertex 0.713 -3.732 0
    endloop
  endfacet
  facet normal -0.96388 0.266335 0
    outer loop
      vertex 0.713 -3.732 0
      vertex 0.734 -3.656 4
      vertex 0.734 -3.656 0
    endloop
  endfacet
  facet normal -0.933675 0.358122 0
    outer loop
      vertex 0.685 -3.805 4
      vertex 0.713 -3.732 4
      vertex 0.685 -3.805 0
    endloop
  endfacet
  facet normal -0.933675 0.358122 0
    outer loop
      vertex 0.685 -3.805 0
      vertex 0.713 -3.732 4
      vertex 0.713 -3.732 0
    endloop
  endfacet
  facet normal -0.894427 0.447214 0
    outer loop
      vertex 0.65 -3.875 4
      vertex 0.685 -3.805 4
      vertex 0.65 -3.875 0
    endloop
  endfacet
  facet normal -0.894427 0.447214 0
    outer loop
      vertex 0.65 -3.875 0
      vertex 0.685 -3.805 4
      vertex 0.685 -3.805 0
    endloop
  endfacet
  facet normal -0.837863 0.54588 0
    outer loop
      vertex 0.607 -3.941 4
      vertex 0.65 -3.875 4
      vertex 0.607 -3.941 0
    endloop
  endfacet
  facet normal -0.837863 0.54588 0
    outer loop
      vertex 0.607 -3.941 0
      vertex 0.65 -3.875 4
      vertex 0.65 -3.875 0
    endloop
  endfacet
  facet normal -0.773392 0.633928 0
    outer loop
      vertex 0.557 -4.002 4
      vertex 0.607 -3.941 4
      vertex 0.557 -4.002 0
    endloop
  endfacet
  facet normal -0.773392 0.633928 0
    outer loop
      vertex 0.557 -4.002 0
      vertex 0.607 -3.941 4
      vertex 0.607 -3.941 0
    endloop
  endfacet
  facet normal -0.707107 0.707107 0
    outer loop
      vertex 0.502 -4.057 4
      vertex 0.557 -4.002 4
      vertex 0.502 -4.057 0
    endloop
  endfacet
  facet normal -0.707107 0.707107 0
    outer loop
      vertex 0.502 -4.057 0
      vertex 0.557 -4.002 4
      vertex 0.557 -4.002 0
    endloop
  endfacet
  facet normal -0.633928 0.773392 0
    outer loop
      vertex 0.441 -4.107 4
      vertex 0.502 -4.057 4
      vertex 0.441 -4.107 0
    endloop
  endfacet
  facet normal -0.633928 0.773392 0
    outer loop
      vertex 0.441 -4.107 0
      vertex 0.502 -4.057 4
      vertex 0.502 -4.057 0
    endloop
  endfacet
  facet normal -0.54588 0.837863 0
    outer loop
      vertex 0.375 -4.15 4
      vertex 0.441 -4.107 4
      vertex 0.375 -4.15 0
    endloop
  endfacet
  facet normal -0.54588 0.837863 0
    outer loop
      vertex 0.375 -4.15 0
      vertex 0.441 -4.107 4
      vertex 0.441 -4.107 0
    endloop
  endfacet
  facet normal -0.447214 0.894427 0
    outer loop
      vertex 0.305 -4.185 4
      vertex 0.375 -4.15 4
      vertex 0.305 -4.185 0
    endloop
  endfacet
  facet normal -0.447214 0.894427 0
    outer loop
      vertex 0.305 -4.185 0
      vertex 0.375 -4.15 4
      vertex 0.375 -4.15 0
    endloop
  endfacet
  facet normal -0.358122 0.933675 0
    outer loop
      vertex 0.232 -4.213 4
      vertex 0.305 -4.185 4
      vertex 0.232 -4.213 0
    endloop
  endfacet
  facet normal -0.358122 0.933675 0
    outer loop
      vertex 0.232 -4.213 0
      vertex 0.305 -4.185 4
      vertex 0.305 -4.185 0
    endloop
  endfacet
  facet normal -0.266335 0.96388 0
    outer loop
      vertex 0.156 -4.234 4
      vertex 0.232 -4.213 4
      vertex 0.156 -4.234 0
    endloop
  endfacet
  facet normal -0.266335 0.96388 0
    outer loop
      vertex 0.156 -4.234 0
      vertex 0.232 -4.213 4
      vertex 0.232 -4.213 0
    endloop
  endfacet
  facet normal -0.152057 0.988372 0
    outer loop
      vertex 0.078 -4.246 4
      vertex 0.156 -4.234 4
      vertex 0.078 -4.246 0
    endloop
  endfacet
  facet normal -0.152057 0.988372 0
    outer loop
      vertex 0.078 -4.246 0
      vertex 0.156 -4.234 4
      vertex 0.156 -4.234 0
    endloop
  endfacet
  facet normal -0.0512148 0.998688 0
    outer loop
      vertex 0 -4.25 4
      vertex 0.078 -4.246 4
      vertex 0 -4.25 0
    endloop
  endfacet
  facet normal -0.0512148 0.998688 0
    outer loop
      vertex 0 -4.25 0
      vertex 0.078 -4.246 4
      vertex 0.078 -4.246 0
    endloop
  endfacet
  facet normal 0.0512148 0.998688 0
    outer loop
      vertex -0.078 -4.246 4
      vertex 0 -4.25 4
      vertex -0.078 -4.246 0
    endloop
  endfacet
  facet normal 0.0512148 0.998688 0
    outer loop
      vertex -0.078 -4.246 0
      vertex 0 -4.25 4
      vertex 0 -4.25 0
    endloop
  endfacet
  facet normal 0.152057 0.988372 0
    outer loop
      vertex -0.156 -4.234 4
      vertex -0.078 -4.246 4
      vertex -0.156 -4.234 0
    endloop
  endfacet
  facet normal 0.152057 0.988372 0
    outer loop
      vertex -0.156 -4.234 0
      vertex -0.078 -4.246 4
      vertex -0.078 -4.246 0
    endloop
  endfacet
  facet normal 0.266335 0.96388 0
    outer loop
      vertex -0.232 -4.213 4
      vertex -0.156 -4.234 4
      vertex -0.232 -4.213 0
    endloop
  endfacet
  facet normal 0.266335 0.96388 0
    outer loop
      vertex -0.232 -4.213 0
      vertex -0.156 -4.234 4
      vertex -0.156 -4.234 0
    endloop
  endfacet
  facet normal 0.358122 0.933675 0
    outer loop
      vertex -0.305 -4.185 4
      vertex -0.232 -4.213 4
      vertex -0.305 -4.185 0
    endloop
  endfacet
  facet normal 0.358122 0.933675 0
    outer loop
      vertex -0.305 -4.185 0
      vertex -0.232 -4.213 4
      vertex -0.232 -4.213 0
    endloop
  endfacet
  facet normal 0.447214 0.894427 0
    outer loop
      vertex -0.375 -4.15 4
      vertex -0.305 -4.185 4
      vertex -0.375 -4.15 0
    endloop
  endfacet
  facet normal 0.447214 0.894427 0
    outer loop
      vertex -0.375 -4.15 0
      vertex -0.305 -4.185 4
      vertex -0.305 -4.185 0
    endloop
  endfacet
  facet normal 0.54588 0.837863 0
    outer loop
      vertex -0.441 -4.107 4
      vertex -0.375 -4.15 4
      vertex -0.441 -4.107 0
    endloop
  endfacet
  facet normal 0.54588 0.837863 0
    outer loop
      vertex -0.441 -4.107 0
      vertex -0.375 -4.15 4
      vertex -0.375 -4.15 0
    endloop
  endfacet
  facet normal 0.633928 0.773392 0
    outer loop
      vertex -0.502 -4.057 4
      vertex -0.441 -4.107 4
      vertex -0.502 -4.057 0
    endloop
  endfacet
  facet normal 0.633928 0.773392 0
    outer loop
      vertex -0.502 -4.057 0
      vertex -0.441 -4.107 4
      vertex -0.441 -4.107 0
    endloop
  endfacet
  facet normal 0.707107 0.707107 0
    outer loop
      vertex -0.557 -4.002 4
      vertex -0.502 -4.057 4
      vertex -0.557 -4.002 0
    endloop
  endfacet
  facet normal 0.707107 0.707107 0
    outer loop
      vertex -0.557 -4.002 0
      vertex -0.502 -4.057 4
      vertex -0.502 -4.057 0
    endloop
  endfacet
  facet normal 0.773392 0.633928 0
    outer loop
      vertex -0.607 -3.941 0
      vertex -0.607 -3.941 4
      vertex -0.557 -4.002 4
    endloop
  endfacet
  facet normal 0.773392 0.633928 0
    outer loop
      vertex -0.557 -4.002 0
      vertex -0.607 -3.941 0
      vertex -0.557 -4.002 4
    endloop
  endfacet
  facet normal 0.837863 0.54588 0
    outer loop
      vertex -0.65 -3.875 0
      vertex -0.65 -3.875 4
      vertex -0.607 -3.941 4
    endloop
  endfacet
  facet normal 0.837863 0.54588 0
    outer loop
      vertex -0.607 -3.941 0
      vertex -0.65 -3.875 0
      vertex -0.607 -3.941 4
    endloop
  endfacet
  facet normal 0.894427 0.447214 0
    outer loop
      vertex -0.685 -3.805 0
      vertex -0.685 -3.805 4
      vertex -0.65 -3.875 4
    endloop
  endfacet
  facet normal 0.894427 0.447214 0
    outer loop
      vertex -0.65 -3.875 0
      vertex -0.685 -3.805 0
      vertex -0.65 -3.875 4
    endloop
  endfacet
  facet normal 0.933675 0.358122 0
    outer loop
      vertex -0.713 -3.732 0
      vertex -0.713 -3.732 4
      vertex -0.685 -3.805 4
    endloop
  endfacet
  facet normal 0.933675 0.358122 0
    outer loop
      vertex -0.685 -3.805 0
      vertex -0.713 -3.732 0
      vertex -0.685 -3.805 4
    endloop
  endfacet
  facet normal 0.96388 0.266335 0
    outer loop
      vertex -0.734 -3.656 0
      vertex -0.734 -3.656 4
      vertex -0.713 -3.732 4
    endloop
  endfacet
  facet normal 0.96388 0.266335 0
    outer loop
      vertex -0.713 -3.732 0
      vertex -0.734 -3.656 0
      vertex -0.713 -3.732 4
    endloop
  endfacet
  facet normal 0.988372 0.152057 0
    outer loop
      vertex -0.746 -3.578 0
      vertex -0.746 -3.578 4
      vertex -0.734 -3.656 4
    endloop
  endfacet
  facet normal 0.988372 0.152057 0
    outer loop
      vertex -0.734 -3.656 0
      vertex -0.746 -3.578 0
      vertex -0.734 -3.656 4
    endloop
  endfacet
  facet normal 0.998688 0.0512148 0
    outer loop
      vertex -0.75 -3.5 0
      vertex -0.75 -3.5 4
      vertex -0.746 -3.578 4
    endloop
  endfacet
  facet normal 0.998688 0.0512148 0
    outer loop
      vertex -0.746 -3.578 0
      vertex -0.75 -3.5 0
      vertex -0.746 -3.578 4
    endloop
  endfacet
  facet normal 1 0 0
    outer loop
      vertex -0.75 -3.5 0
      vertex -0.75 -1.412 0
      vertex -0.75 -1.412 4
    endloop
  endfacet
  facet normal 1 0 0
    outer loop
      vertex -0.75 -3.5 4
      vertex -0.75 -3.5 0
      vertex -0.75 -1.412 4
    endloop
  endfacet
  facet normal 0.461353 0.887217 0
    outer loop
      vertex -0.8 -1.386 4
      vertex -0.75 -1.412 4
      vertex -0.8 -1.386 0
    endloop
  endfacet
  facet normal 0.461353 0.887217 0
    outer loop
      vertex -0.8 -1.386 0
      vertex -0.75 -1.412 4
      vertex -0.75 -1.412 0
    endloop
  endfacet
  facet normal 0.549178 0.835705 0
    outer loop
      vertex -0.94 -1.294 4
      vertex -0.8 -1.386 4
      vertex -0.94 -1.294 0
    endloop
  endfacet
  facet normal 0.549178 0.835705 0
    outer loop
      vertex -0.94 -1.294 0
      vertex -0.8 -1.386 4
      vertex -0.8 -1.386 0
    endloop
  endfacet
  facet normal 0.625421 0.780287 0
    outer loop
      vertex -1.071 -1.189 4
      vertex -0.94 -1.294 4
      vertex -1.071 -1.189 0
    endloop
  endfacet
  facet normal 0.625421 0.780287 0
    outer loop
      vertex -1.071 -1.189 0
      vertex -0.94 -1.294 4
      vertex -0.94 -1.294 0
    endloop
  endfacet
  facet normal 0.707107 0.707107 0
    outer loop
      vertex -1.189 -1.071 4
      vertex -1.071 -1.189 4
      vertex -1.189 -1.071 0
    endloop
  endfacet
  facet normal 0.707107 0.707107 0
    outer loop
      vertex -1.189 -1.071 0
      vertex -1.071 -1.189 4
      vertex -1.071 -1.189 0
    endloop
  endfacet
  facet normal 0.780287 0.625421 0
    outer loop
      vertex -1.294 -0.94 0
      vertex -1.294 -0.94 4
      vertex -1.189 -1.071 4
    endloop
  endfacet
  facet normal 0.780287 0.625421 0
    outer loop
      vertex -1.189 -1.071 0
      vertex -1.294 -0.94 0
      vertex -1.189 -1.071 4
    endloop
  endfacet
  facet normal 0.835705 0.549178 0
    outer loop
      vertex -1.386 -0.8 0
      vertex -1.386 -0.8 4
      vertex -1.294 -0.94 4
    endloop
  endfacet
  facet normal 0.835705 0.549178 0
    outer loop
      vertex -1.294 -0.94 0
      vertex -1.386 -0.8 0
      vertex -1.294 -0.94 4
    endloop
  endfacet
  facet normal 0.890811 0.454374 0
    outer loop
      vertex -1.462 -0.651 0
      vertex -1.462 -0.651 4
      vertex -1.386 -0.8 4
    endloop
  endfacet
  facet normal 0.890811 0.454374 0
    outer loop
      vertex -1.386 -0.8 0
      vertex -1.462 -0.651 0
      vertex -1.386 -0.8 4
    endloop
  endfacet
  facet normal 0.93411 0.356985 0
    outer loop
      vertex -1.522 -0.494 0
      vertex -1.522 -0.494 4
      vertex -1.462 -0.651 4
    endloop
  endfacet
  facet normal 0.93411 0.356985 0
    outer loop
      vertex -1.462 -0.651 0
      vertex -1.522 -0.494 0
      vertex -1.462 -0.651 4
    endloop
  endfacet
  facet normal 0.966135 0.258036 0
    outer loop
      vertex -1.565 -0.333 0
      vertex -1.565 -0.333 4
      vertex -1.522 -0.494 4
    endloop
  endfacet
  facet normal 0.966135 0.258036 0
    outer loop
      vertex -1.522 -0.494 0
      vertex -1.565 -0.333 0
      vertex -1.522 -0.494 4
    endloop
  endfacet
  facet normal 0.987955 0.15474 0
    outer loop
      vertex -1.591 -0.167 0
      vertex -1.591 -0.167 4
      vertex -1.565 -0.333 4
    endloop
  endfacet
  facet normal 0.987955 0.15474 0
    outer loop
      vertex -1.565 -0.333 0
      vertex -1.591 -0.167 0
      vertex -1.565 -0.333 4
    endloop
  endfacet
endsolid OpenSCAD_Model
